<?xml version="1.0" standalone="no"?>
<!DOCTYPE svg PUBLIC "-//W3C//DTD SVG 1.1//EN" "http://www.w3.org/Graphics/SVG/1.1/DTD/svg11.dtd" >
<svg xmlns="http://www.w3.org/2000/svg" xmlns:xlink="http://www.w3.org/1999/xlink" version="1.1">
<metadata>
Created by FontForge 20170731 at Mon Nov 27 16:48:46 2017
 By Aleksey,,,
Ellen Luff
</metadata>
<defs>
<font id="Kiona-SemiBoldItallic" horiz-adv-x="687" >
  <font-face 
    font-family="Kiona SemiBold"
    font-weight="600"
    font-style="italic"
    font-stretch="normal"
    units-per-em="1000"
    panose-1="0 0 7 0 0 0 0 0 0 0"
    ascent="800"
    descent="-200"
    x-height="651"
    cap-height="651"
    bbox="-669 -200 1008 901"
    underline-thickness="50"
    underline-position="-150"
    slope="-11"
    unicode-range="U+0020-2212"
  />
<missing-glyph horiz-adv-x="450" 
d="M369 700v-900h-285v900h285zM300 86h-150v-102h150v102zM270 57v-43h-90v43h90zM300 242h-90v-50h30v20h30v-42h-90v72h-30v-102h150v102zM300 352h-30v-60h-120v-30h150v90zM300 406h-150v-30h60v-33h-60v-30h90v63h60v30zM210 493v-32h-30v32h30zM240 524h-90v-94h150
v31h-60v63zM300 640h-149v-30h59v-33h-60v-30h150v30h-60v33h60v30zM300 -36h-150v-30h63l-63 -42v-30h150v30h-92l63 42h29v30z" />
    <glyph glyph-name=".notdef" horiz-adv-x="450" 
d="M369 700v-900h-285v900h285zM300 86h-150v-102h150v102zM270 57v-43h-90v43h90zM300 242h-90v-50h30v20h30v-42h-90v72h-30v-102h150v102zM300 352h-30v-60h-120v-30h150v90zM300 406h-150v-30h60v-33h-60v-30h90v63h60v30zM210 493v-32h-30v32h30zM240 524h-90v-94h150
v31h-60v63zM300 640h-149v-30h59v-33h-60v-30h150v30h-60v33h60v30zM300 -36h-150v-30h63l-63 -42v-30h150v30h-92l63 42h29v30z" />
    <glyph glyph-name=".null" horiz-adv-x="0" 
 />
    <glyph glyph-name="nonmarkingreturn" horiz-adv-x="333" 
 />
    <glyph glyph-name="space" unicode=" " horiz-adv-x="312" 
 />
    <glyph glyph-name="exclam" unicode="!" horiz-adv-x="260" 
d="M4.5 72q-14.5 -12 -18.5 -30q-3 -17 7 -29.5t27 -12.5t32 12.5t18 29.5t-7 29.5t-27 12.5t-31.5 -12zM188 651l-16 -83l-94 -430h-63l73 430l17 83h83z" />
    <glyph glyph-name="quotedbl" unicode="&#x22;" horiz-adv-x="402" 
d="M209 536h49l83 115h-70zM72 536h49l82 115h-69z" />
    <glyph glyph-name="numbersign" unicode="#" horiz-adv-x="812" 
d="M721 423l-146 1l-66 -197h145l-27 -83l-145 1l-48 -145h-84l48 145h-198l-49 -145h-83l47 145h-145l27 82h147l65 197h-146l29 82h145l49 145h83l-49 -145h200l48 145h83l-48 -145h146zM425 227l67 197h-200l-65 -197h198z" />
    <glyph glyph-name="dollar" unicode="$" horiz-adv-x="602" 
d="M439 262q11 -23 11 -54q0 -41 -19 -80q-33 -68 -107 -104q-43 -20 -95 -26l-20 -98h-83l20 100q-98 15 -166 89l69 62q61 -71 165 -71q63 0 95.5 23.5t45.5 48.5q11 22 11 40q0 26 -18.5 46t-53.5 31l-121 38q-37 12 -64 34.5t-39 51.5q-12 26 -12 55q0 39 21 79
q33 69 106 104q41 20 89 25l19 101h83l-19 -102q104 -12 172 -89l-69 -62q-62 71 -166 71q-62 0 -96.5 -24.5t-43.5 -47.5q-11 -22 -11 -41q0 -25 18 -44.5t52 -31.5l122 -38q78 -24 104 -86z" />
    <glyph glyph-name="percent" unicode="%" horiz-adv-x="794" 
d="M542.5 3q35.5 19 60 51t31.5 69q3 14 3 27q0 48 -32 79.5t-81 31.5q-37 0 -72.5 -18.5t-60 -50.5t-31.5 -69q-3 -13 -3 -27q0 -48 31.5 -80t81.5 -32q37 0 72.5 19zM539 165q12 -12 12 -31q0 -7 -1 -11q-5 -23 -23 -39t-40 -16q-19 0 -32 12.5t-13 31.5q0 7 1 11
q5 23 23.5 38.5t41.5 15.5q19 0 31 -12zM248.5 409.5q35.5 18.5 60 50t31.5 69.5q3 14 3 27q0 48 -31.5 79.5t-81.5 31.5q-37 0 -72.5 -18.5t-60 -50.5t-31.5 -69q-3 -13 -3 -27q0 -48 31.5 -79.5t81.5 -31.5q37 0 72.5 18.5zM245.5 570.5q12.5 -12.5 12.5 -31.5
q0 -6 -1 -10q-5 -23 -24 -39t-41 -16q-19 0 -31.5 12.5t-12.5 30.5q0 8 1 12q4 23 22.5 38.5t41.5 15.5q20 0 32.5 -12.5zM47 0l509 651h97l-509 -651h-97z" />
    <glyph glyph-name="ampersand" unicode="&#x26;" horiz-adv-x="735" 
d="M535 0h-117l-50 61q-99 -67 -168 -67q-54 0 -96 20t-65.5 54.5t-23.5 77.5q0 15 3 31q15 82 89 133q6 4 19 12t26 14q-40 49 -40 113q0 16 3 34q8 35 28 67t50 56q29 24 65 36.5t73 12.5q74 0 116 -49q34 -37 34 -90q0 -11 -4 -33q-6 -34 -30 -66t-63 -58l-48 60
q25 15 40.5 32t17.5 32q2 12 2 17q0 31 -23 51.5t-59 20.5q-41 0 -74 -26t-41 -63q-2 -7 -2 -21q0 -37 27 -69zM263.5 89.5q25.5 11.5 57.5 31.5l-121 153q-47 -20 -69.5 -41.5t-29.5 -55.5q-1 -5 -1 -15q0 -36 32.5 -60t83.5 -24q22 0 47.5 11.5zM583 211q-15 -9 -26 -18
l-29 -20l-45 60l16 12q34 24 38 26z" />
    <glyph glyph-name="quotesingle" unicode="'" horiz-adv-x="244" 
d="M67 536h49l83 115h-69z" />
    <glyph glyph-name="parenleft" unicode="(" horiz-adv-x="338" 
d="M83 180q0 -33 24 -62t64 -38l-17 -84q-33 4 -62.5 19.5t-51.5 39.5q-43 51 -43 111q0 15 3 28t7.5 37.5t12.5 62.5l31 162q7 37 32 73.5t62 65.5q31 24 66.5 39.5t70.5 19.5l-16 -84q-47 -9 -85 -44t-46 -70q-10 -54 -25 -130.5t-26 -131.5q-1 -4 -1 -14z" />
    <glyph glyph-name="parenright" unicode=")" horiz-adv-x="338" 
d="M64 125q-38 -35 -86 -44l-16 -85q72 9 137 59q38 30 62 66.5t32 74.5q43 220 50 260q4 22 4 32q0 59 -43 108q-22 24 -51.5 39t-62.5 20l-16 -84q39 -9 62.5 -38t23.5 -62q0 -10 -1 -15q-7 -40 -50 -260q-7 -36 -45 -71z" />
    <glyph glyph-name="asterisk" unicode="*" horiz-adv-x="477" 
d="M107 307l103 110l58 -110l78 49l-60 110l138 43l-9 79l-138 -42l27 136h-85l-27 -136l-120 42l-42 -79l122 -43l-101 -110z" />
    <glyph glyph-name="plus" unicode="+" horiz-adv-x="514" 
d="M402 368l-16 -83h-143l-27 -143h-83l27 143h-142l16 83h143l28 143h83l-28 -143h142z" />
    <glyph glyph-name="comma" unicode="," horiz-adv-x="239" 
d="M-64 -58h49l83 115h-69z" />
    <glyph glyph-name="hyphen" unicode="-" horiz-adv-x="514" 
d="M386 285l16 83h-368l-16 -83h368z" />
    <glyph glyph-name="period" unicode="." horiz-adv-x="229" 
d="M-22.5 12.5q9.5 -12.5 26.5 -12.5t32 12.5t18 29.5t-7 29t-26 12q-17 0 -32 -12t-18 -29t6.5 -29.5z" />
    <glyph glyph-name="slash" unicode="/" horiz-adv-x="605" 
d="M-48 0l511 651h97l-510 -651h-98z" />
    <glyph glyph-name="zero" unicode="0" horiz-adv-x="595" 
d="M275.5 10q43.5 16 80.5 45q38 30 62 66.5t31 72.5q16 72 51 262q4 22 4 32q0 58 -43 107q-25 29 -62.5 45t-78.5 16t-84.5 -16t-80.5 -45t-61.5 -65.5t-32.5 -73.5q-9 -52 -24 -129.5t-26 -130.5q-3 -15 -3 -31q0 -60 42 -110q26 -29 63 -45t78 -16t84.5 16zM363 558
q26 -15 40.5 -39t14.5 -49q0 -9 -1 -14q-28 -147 -51 -262q-5 -27 -29 -54t-58.5 -44.5t-70.5 -17.5q-33 0 -59 14.5t-41 38t-15 48.5q0 7 2 17q10 53 24.5 130t25.5 130q5 27 29 54t59 45t71 18q33 0 59 -15z" />
    <glyph glyph-name="one" unicode="1" horiz-adv-x="384" 
d="M15 428l303 246l-131 -674h-83l93 478l-204 -165z" />
    <glyph glyph-name="two" unicode="2" horiz-adv-x="551" 
d="M395 84h-262q63 69 117 123q77 81 115 125t62 88t26 88q1 37 -12.5 67.5t-40.5 51.5q-41 33 -98 33q-25 0 -44 -5q-85 -18 -156 -90q-13 -13 -22 -22.5t-11 -12.5l54 -51q2 3 11 12t21 20q71 66 130 66q32 0 55 -19q28 -21 28 -63q-1 -27 -18.5 -56.5t-55.5 -72
t-135 -144.5q-33 -35 -83.5 -88.5t-123.5 -132.5h427z" />
    <glyph glyph-name="three" unicode="3" horiz-adv-x="555" 
d="M423 224q0 -16 -3 -34q-7 -40 -32.5 -76.5t-63.5 -64.5q-35 -26 -78 -40.5t-87 -14.5q-43 0 -80.5 14.5t-63.5 40.5q-30 32 -39 72l80 52q2 -42 35 -69t84 -27q57 0 104 33t57 80q2 12 2 17q0 28 -14 52t-31 39q-12 11 -30 27t-26 23l60 51q27 23 38.5 40t16.5 41
q1 5 1 16q0 33 -23 54.5t-59 21.5q-41 0 -74.5 -27t-40.5 -65h-84q9 48 41.5 88t79 63.5t95.5 23.5q66 0 108.5 -41t42.5 -103q0 -14 -3 -31q-8 -38 -26 -66.5t-46 -55.5q59 -61 59 -134z" />
    <glyph glyph-name="four" unicode="4" horiz-adv-x="641" 
d="M365 0l30 154h129l16 83h-129l81 414h-97l-423 -497h340l-30 -154h83zM142 237l241 282l-55 -282h-186z" />
    <glyph glyph-name="five" unicode="5" horiz-adv-x="567" 
d="M303.5 21q56.5 27 95 73.5t49.5 102.5q4 24 4 35q0 60 -42 105q-26 27 -64 42t-83 15l-112 -1l47 175h298l17 83h-377l-91 -342h44l157 1q62 0 96 -36q23 -26 23 -61q0 -11 -1 -16q-5 -24 -19 -46.5t-36 -38.5q-22 -17 -50 -26t-58 -9q-47 0 -84 25t-37 61q0 8 1 12h-84
q-3 -13 -3 -27q0 -60 47 -102q26 -26 63 -39t81 -13q62 0 118.5 27z" />
    <glyph glyph-name="six" unicode="6" horiz-adv-x="551" 
d="M294 651h95q-122 -171 -135 -190l-54 -75q21 5 52 5q44 0 81.5 -14.5t63.5 -41.5q43 -44 43 -108q0 -17 -3 -35q-8 -41 -33 -77.5t-63 -64.5q-36 -27 -79 -41.5t-87 -14.5q-88 0 -146 56q-43 45 -43 106q0 12 4 36q7 43 37 84zM163.5 292.5q-35.5 -15.5 -60 -42.5
t-30.5 -58q-2 -12 -2 -19q0 -41 34 -68.5t85 -27.5q58 0 106 34t58 81q2 12 2 18q0 42 -34 70t-86 28q-37 0 -72.5 -15.5z" />
    <glyph glyph-name="seven" unicode="7" horiz-adv-x="579" 
d="M544 651l-469 -651h-94l408 568h-332l17 83h470z" />
    <glyph glyph-name="eight" unicode="8" horiz-adv-x="560" 
d="M438 227q0 -17 -3 -35q-8 -41 -32.5 -77t-62.5 -64q-37 -27 -80 -41.5t-86 -14.5q-44 0 -81 14.5t-63 41.5q-44 46 -44 107q0 10 4 34q7 40 32 77t63 66q28 18 34 21q-36 39 -36 96q0 15 3 31q9 47 42 87t79.5 63.5t95.5 23.5q43 0 77.5 -18.5t53.5 -51t19 -72.5
q0 -15 -3 -32q-7 -37 -28 -70t-52 -57l25 -21q43 -44 43 -108zM169 466q0 -32 23 -53.5t59 -21.5q41 0 75 27t41 65q2 12 2 17q0 31 -23.5 52.5t-59.5 21.5q-40 0 -73.5 -27t-41.5 -64q-2 -12 -2 -17zM294.5 111.5q47.5 33.5 57.5 80.5q2 12 2 18q0 42 -34 69.5t-86 27.5
q-58 0 -105 -33.5t-56 -81.5q-2 -12 -2 -19q0 -40 34 -67.5t85 -27.5q57 0 104.5 33.5z" />
    <glyph glyph-name="nine" unicode="9" horiz-adv-x="572" 
d="M182 0h-95q66 90 95 131q80 112 97 134q-30 -5 -52 -5q-87 0 -146 56q-43 46 -43 108q0 12 4 36q8 41 32.5 77.5t62.5 64.5q36 27 79 41.5t88 14.5t82 -14t63 -42q43 -43 43 -107q0 -17 -3 -35q-9 -47 -37 -85zM347 377q49 33 59 83q2 12 2 18q0 42 -34 69.5t-86 27.5
q-38 0 -73.5 -15.5t-59.5 -42t-30 -57.5q-2 -14 -2 -19q0 -42 33.5 -69.5t85.5 -27.5q56 0 105 33z" />
    <glyph glyph-name="colon" unicode=":" horiz-adv-x="229" 
d="M-18 96q0 -14 10 -24t25 -10q17 0 31 12t19 30q3 17 -7.5 29.5t-27.5 12.5t-31 -12.5t-18 -29.5q-1 -3 -1 -8zM31 348q0 -14 10 -24t25 -10q16 0 30.5 12.5t18.5 29.5q1 3 1 8q0 14 -10 23.5t-25 9.5q-17 0 -31.5 -12t-17.5 -29q-1 -3 -1 -8z" />
    <glyph glyph-name="semicolon" unicode=";" horiz-adv-x="261" 
d="M53.5 238.5q9.5 -11.5 26.5 -11.5t32 12t18 29t-6.5 29.5t-26.5 12.5t-32 -12.5t-18 -29.5q-3 -18 6.5 -29.5zM-49 -58h49l82 115h-68z" />
    <glyph glyph-name="less" unicode="&#x3c;" horiz-adv-x="485" 
d="M337 183l-20 -103l-291 246l387 244l-21 -103l-224 -141z" />
    <glyph glyph-name="equal" unicode="=" horiz-adv-x="514" 
d="M365 174l16 83h-369l-15 -83h368zM408 396l16 83h-368l-16 -83h368z" />
    <glyph glyph-name="greater" unicode="&#x3e;" horiz-adv-x="484" 
d="M54 468l20 104l290 -246l-386 -245l20 103l225 142z" />
    <glyph glyph-name="question" unicode="?" horiz-adv-x="590" 
d="M238 171q5 26 17.5 40t30 25t25.5 17l28 19q20 14 42.5 31.5t40.5 36.5q50 51 64 120q3 17 3 33q0 64 -44 108q-25 27 -62 41.5t-81 14.5q-45 0 -88 -14.5t-79 -41.5q-38 -28 -62 -64.5t-31 -76.5h83q6 31 29.5 57t58.5 41.5t72 15.5q51 0 85 -27.5t34 -67.5q0 -7 -2 -19
q-7 -39 -32 -65t-70 -58q-8 -5 -16 -10.5t-12 -8.5q-44 -30 -70 -60.5t-37 -86.5l-7 -39h73zM157 64.5q-14 -12.5 -18 -29.5q-1 -3 -1 -8q0 -14 10 -23.5t25 -9.5q17 0 31 12t19 29q3 17 -7.5 29.5t-27.5 12.5t-31 -12.5z" />
    <glyph glyph-name="at" unicode="@" horiz-adv-x="841" 
d="M755 398q0 -38 -7 -72q-8 -37 -27.5 -69t-49.5 -56q-29 -23 -61.5 -35t-63.5 -12q-32 0 -58.5 12.5t-43.5 35.5q-3 3 -13 18q-38 -24 -82 -24q-47 0 -77 30.5t-30 76.5q0 8 2 24q11 54 57 92.5t99 38.5q21 0 44 -9l3 18h83l-29 -154q-3 -30 12.5 -53t48.5 -23
q15 0 32 6.5t31 17.5q31 23 40 65q5 23 5 54q0 87 -51 152q-33 41 -82 62.5t-106 21.5q-79 0 -153.5 -39t-126.5 -105.5t-67 -145.5q-5 -24 -5 -56q0 -66 30.5 -120t85 -84.5t123.5 -30.5q76 0 153 40h131q-64 -58 -142 -90.5t-158 -32.5q-89 0 -159.5 39.5t-110 108.5
t-39.5 154q0 37 7 72q20 101 87 186.5t163 136t197 50.5q74 0 136 -27.5t105 -79.5q67 -82 67 -194zM401 293q17 14 21 34q1 3 1 9q0 17 -11 27.5t-28 10.5q-20 0 -36.5 -13.5t-20.5 -33.5q-1 -4 -1 -10q0 -17 11 -27.5t28 -10.5q19 0 36 14z" />
    <glyph glyph-name="A" unicode="A" 
d="M111 126l-82 -126h-92l432 658l161 -658h-90l-30 126h-299zM328 456l-163 -247h224z" />
    <glyph glyph-name="B" unicode="B" horiz-adv-x="605" 
d="M483 225q0 -16 -3 -33q-7 -37 -30 -72t-59 -62q-36 -28 -80.5 -43t-91.5 -15h-244l127 651h195q92 0 139 -52q35 -38 35 -94q0 -15 -3 -30q-12 -63 -60 -106l-11 -9q42 -20 67 -60q19 -34 19 -75zM133 386h110q41 0 70 10q22 11 43.5 28t28.5 51q1 5 1 14q0 28 -19 48
q-27 30 -86 30h-113zM312.5 99.5q34.5 15.5 56.5 40.5t27 52q1 5 1 16q0 23 -12 43.5t-37 32.5q-38 19 -100 19h-130l-43 -219h161q42 0 76.5 15.5z" />
    <glyph glyph-name="C" unicode="C" horiz-adv-x="679" 
d="M413 26q73 32 132 92l-55 52q-43 -44 -98.5 -68.5t-111.5 -24.5q-58 0 -104.5 26.5t-72 72t-25.5 102.5q0 20 5 48q13 67 57.5 124.5t107.5 91t130 33.5q51 0 94 -21t71 -60l73 55q-36 52 -94.5 80.5t-128.5 28.5q-89 0 -173.5 -44.5t-143.5 -121t-76 -166.5
q-6 -33 -6 -64q0 -76 34 -137t95.5 -96t140.5 -35q76 0 149 32z" />
    <glyph glyph-name="D" unicode="D" horiz-adv-x="649" 
d="M306 26q65 26 117 74q49 45 82 103.5t45 123.5q7 32 7 68q0 90 -46 157q-35 48 -89.5 73.5t-123.5 25.5h-196l-127 -651h197q69 0 134 26zM168 567h114q51 0 91 -18t65 -53q34 -51 34 -117q0 -22 -5 -52q-12 -62 -50 -118t-97 -91t-132 -35h-113z" />
    <glyph glyph-name="E" unicode="E" horiz-adv-x="586" 
d="M391 0l17 83h-333l38 201h255l17 84h-255l38 199h333l17 84h-416l-127 -651h416z" />
    <glyph glyph-name="F" unicode="F" horiz-adv-x="577" 
d="M59 0l55 284h254l17 84h-254l39 199h331l17 84h-416l-127 -651h84z" />
    <glyph glyph-name="G" unicode="G" horiz-adv-x="701" 
d="M571 344h-263l-16 -83h180l-34 -178h-157q-58 0 -104 26t-72 71.5t-26 101.5q0 20 5 47q13 67 57 123t106 89t128 33q51 0 94 -20.5t71 -58.5l72 56q-36 51 -94 79t-126 28q-89 0 -172.5 -44t-142 -119.5t-76.5 -165.5q-6 -31 -6 -62q0 -75 34 -136t95.5 -96t139.5 -35
h240z" />
    <glyph glyph-name="H" unicode="H" horiz-adv-x="659" 
d="M380 0h83l127 651h-85l-55 -283h-318l55 283h-84l-127 -651h84l55 284h319z" />
    <glyph glyph-name="I" unicode="I" horiz-adv-x="278" 
d="M71 0l127 651h-85l-127 -651h85z" />
    <glyph glyph-name="J" unicode="J" horiz-adv-x="575" 
d="M236.5 16q51.5 22 92.5 62q43 42 72.5 101t43.5 130l67 342h-84l-66 -342q-23 -114 -86 -177q-58 -55 -129 -55q-45 0 -76.5 25t-45.5 72l-82 -38q20 -67 70 -104.5t118 -37.5q54 0 105.5 22z" />
    <glyph glyph-name="K" unicode="K" horiz-adv-x="650" 
d="M488 0h-108l-156 255l-252 -271l130 667h84l-80 -411l381 411h103l-302 -325z" />
    <glyph glyph-name="L" unicode="L" horiz-adv-x="576" 
d="M391 0l17 83h-332l110 568h-84l-127 -651h416z" />
    <glyph glyph-name="M" unicode="M" horiz-adv-x="843" 
d="M647 0l129 661l-419 -434l-252 434l-129 -661h84l81 417l190 -327l314 326l-81 -416h83z" />
    <glyph glyph-name="N" unicode="N" horiz-adv-x="677" 
d="M478 -16l130 667h-83l-87 -447l-333 457l-129 -661h83l87 443z" />
    <glyph glyph-name="O" unicode="O" horiz-adv-x="752" 
d="M438.5 38.5q84.5 44.5 143.5 121t76 166.5q6 33 6 64q0 76 -34.5 137t-96 95.5t-139.5 34.5q-90 0 -174.5 -44.5t-143.5 -120.5t-76 -166q-6 -33 -6 -64q0 -76 34.5 -137t96 -96t140.5 -35q89 0 173.5 44.5zM482.5 548q46.5 -26 72 -71.5t25.5 -102.5q0 -20 -5 -48
q-13 -68 -57.5 -125t-107.5 -90.5t-129 -33.5q-59 0 -105 26t-72 71.5t-26 102.5q0 21 5 49q13 67 57.5 124t107.5 90.5t130 33.5q58 0 104.5 -26z" />
    <glyph glyph-name="P" unicode="P" horiz-adv-x="599" 
d="M59 0l52 265h154q43 0 85 14.5t77 40.5q38 28 62.5 64t31.5 75q3 17 3 33q0 30 -10.5 57t-31.5 48q-27 26 -63.5 40t-78.5 14h-238l-127 -651h84zM168 567h155q51 0 83.5 -26.5t32.5 -65.5q0 -11 -1 -16q-9 -46 -55 -78t-102 -32h-154z" />
    <glyph glyph-name="Q" unicode="Q" horiz-adv-x="776" 
d="M500 0l-39 51q-99 -57 -196 -57q-79 0 -140.5 35t-96 96t-34.5 137q0 31 6 64q17 90 76 166t143.5 120.5t174.5 44.5q78 0 139.5 -34.5t96 -95.5t34.5 -137q0 -31 -6 -64q-12 -62 -44 -118.5t-80 -101.5l80 -106h-114zM414 113l-132 180l72 56l135 -181q33 33 55.5 73.5
t30.5 84.5q5 28 5 48q0 57 -25.5 102.5t-72 71.5t-104.5 26q-67 0 -130 -33.5t-107.5 -90.5t-57.5 -124q-5 -27 -5 -48q0 -57 26 -102.5t72.5 -71.5t105.5 -26q70 0 132 35z" />
    <glyph glyph-name="R" unicode="R" horiz-adv-x="606" 
d="M434 0h-105l-179 349h93q68 0 110 15q34 14 57 41.5t28 53.5q1 5 1 16q0 38 -32 65t-88 27h-151l-109 -567h-84l127 651h234q46 0 84.5 -15t64.5 -43q39 -45 39 -103q0 -16 -3 -31q-11 -59 -56 -106q-41 -42 -94 -65q-39 -14 -73 -14z" />
    <glyph glyph-name="S" unicode="S" horiz-adv-x="620" 
d="M454 281.5q20 -33.5 20 -72.5q0 -15 -3 -30q-7 -39 -33.5 -74.5t-67.5 -61.5q-76 -51 -173 -51q-99 0 -156 51q-43 36 -51 92l86 44q-1 -4 -1 -12q0 -38 39.5 -65t97.5 -27q41 0 79.5 14.5t64.5 38t31 51.5q1 5 1 14q0 42 -43 67q-27 15 -99 24q-80 7 -117 29
q-40 21 -61.5 55t-21.5 74q0 14 3 29q7 39 34 74.5t68 61.5q79 51 175 51q46 0 86 -13t68 -38q44 -36 50 -92l-86 -44q1 5 1 13q0 38 -39.5 64t-96.5 26q-42 0 -80 -14t-64 -37.5t-32 -51.5q-1 -4 -1 -11q0 -22 13.5 -42t35.5 -30q12 -7 30.5 -11t37 -7t25.5 -4
q40 -5 70 -12t55 -21q35 -18 55 -51.5z" />
    <glyph glyph-name="T" unicode="T" horiz-adv-x="629" 
d="M595 651l-17 -84h-221l-111 -567h-84l110 567h-221l17 84h527z" />
    <glyph glyph-name="U" unicode="U" horiz-adv-x="676" 
d="M328 13.5q50 19.5 93 56.5q42 36 70 83t38 98l78 400h-83l-78 -400q-7 -35 -26 -67t-48 -56q-28 -24 -62 -37.5t-68 -13.5q-33 0 -61 13.5t-48 37.5q-29 37 -29 88q0 17 3 35l78 400h-83l-78 -400q-5 -22 -5 -52q0 -74 43 -129q28 -37 71 -56.5t94 -19.5t101 19.5z" />
    <glyph glyph-name="V" unicode="V" horiz-adv-x="685" 
d="M268 190l296 461h91l-427 -667l-168 667h92z" />
    <glyph glyph-name="W" unicode="W" horiz-adv-x="885" 
d="M545 225l223 426h87l-347 -667l-94 427l-261 -427l-90 667h88l58 -427l247 404z" />
    <glyph glyph-name="X" unicode="X" horiz-adv-x="643" 
d="M607 651l-283 -325l156 -326h-99l-121 252l-219 -252h-99l283 326l-156 325h98l122 -252l219 252h99z" />
    <glyph glyph-name="Y" unicode="Y" horiz-adv-x="718" 
d="M310 311l280 340h100l-355 -428l-44 -223h-83l44 223l-191 428h99z" />
    <glyph glyph-name="Z" unicode="Z" horiz-adv-x="589" 
d="M389 0l17 83h-283l404 568h-421l-17 -84h284l-405 -567h421z" />
    <glyph glyph-name="bracketleft" unicode="[" horiz-adv-x="319" 
d="M136 0l17 84h-91l94 483h90l17 84h-174l-126 -651h173z" />
    <glyph glyph-name="backslash" unicode="\" horiz-adv-x="605" 
d="M336 0l-257 651h98l256 -651h-97z" />
    <glyph glyph-name="bracketright" unicode="]" horiz-adv-x="319" 
d="M136 0l127 651h-174l-16 -84h89l-93 -483h-90l-16 -84h173z" />
    <glyph glyph-name="asciicircum" unicode="^" horiz-adv-x="600" 
d="M97 386l201 168l135 -168l70 59l-182 227l-272 -228z" />
    <glyph glyph-name="underscore" unicode="_" horiz-adv-x="782" 
d="M609 0l17 83h-657l-17 -83h657z" />
    <glyph glyph-name="a" unicode="a" 
d="M111 126l-82 -126h-92l432 658l161 -658h-90l-30 126h-299zM328 456l-163 -247h224z" />
    <glyph glyph-name="b" unicode="b" horiz-adv-x="605" 
d="M483 225q0 -16 -3 -33q-7 -37 -30 -72t-59 -62q-36 -28 -80.5 -43t-91.5 -15h-244l127 651h195q92 0 139 -52q35 -38 35 -94q0 -15 -3 -30q-12 -63 -60 -106l-11 -9q42 -20 67 -60q19 -34 19 -75zM133 386h110q41 0 70 10q22 11 43.5 28t28.5 51q1 5 1 14q0 28 -19 48
q-27 30 -86 30h-113zM312.5 99.5q34.5 15.5 56.5 40.5t27 52q1 5 1 16q0 23 -12 43.5t-37 32.5q-38 19 -100 19h-130l-43 -219h161q42 0 76.5 15.5z" />
    <glyph glyph-name="c" unicode="c" horiz-adv-x="679" 
d="M413 26q73 32 132 92l-55 52q-43 -44 -98.5 -68.5t-111.5 -24.5q-58 0 -104.5 26.5t-72 72t-25.5 102.5q0 20 5 48q13 67 57.5 124.5t107.5 91t130 33.5q51 0 94 -21t71 -60l73 55q-36 52 -94.5 80.5t-128.5 28.5q-89 0 -173.5 -44.5t-143.5 -121t-76 -166.5
q-6 -33 -6 -64q0 -76 34 -137t95.5 -96t140.5 -35q76 0 149 32z" />
    <glyph glyph-name="d" unicode="d" horiz-adv-x="649" 
d="M306 26q65 26 117 74q49 45 82 103.5t45 123.5q7 32 7 68q0 90 -46 157q-35 48 -89.5 73.5t-123.5 25.5h-196l-127 -651h197q69 0 134 26zM168 567h114q51 0 91 -18t65 -53q34 -51 34 -117q0 -22 -5 -52q-12 -62 -50 -118t-97 -91t-132 -35h-113z" />
    <glyph glyph-name="e" unicode="e" horiz-adv-x="586" 
d="M391 0l17 83h-333l38 201h255l17 84h-255l38 199h333l17 84h-416l-127 -651h416z" />
    <glyph glyph-name="f" unicode="f" horiz-adv-x="577" 
d="M59 0l55 284h254l17 84h-254l39 199h331l17 84h-416l-127 -651h84z" />
    <glyph glyph-name="g" unicode="g" horiz-adv-x="701" 
d="M571 344h-263l-16 -83h180l-34 -178h-157q-58 0 -104 26t-72 71.5t-26 101.5q0 20 5 47q13 67 57 123t106 89t128 33q51 0 94 -20.5t71 -58.5l72 56q-36 51 -94 79t-126 28q-89 0 -172.5 -44t-142 -119.5t-76.5 -165.5q-6 -31 -6 -62q0 -75 34 -136t95.5 -96t139.5 -35
h240z" />
    <glyph glyph-name="h" unicode="h" horiz-adv-x="659" 
d="M380 0h83l127 651h-85l-55 -283h-318l55 283h-84l-127 -651h84l55 284h319z" />
    <glyph glyph-name="i" unicode="i" horiz-adv-x="278" 
d="M71 0l127 651h-85l-127 -651h85z" />
    <glyph glyph-name="j" unicode="j" horiz-adv-x="575" 
d="M236.5 16q51.5 22 92.5 62q43 42 72.5 101t43.5 130l67 342h-84l-66 -342q-23 -114 -86 -177q-58 -55 -129 -55q-45 0 -76.5 25t-45.5 72l-82 -38q20 -67 70 -104.5t118 -37.5q54 0 105.5 22z" />
    <glyph glyph-name="k" unicode="k" horiz-adv-x="650" 
d="M488 0h-108l-156 255l-252 -271l130 667h84l-80 -411l381 411h103l-302 -325z" />
    <glyph glyph-name="l" unicode="l" horiz-adv-x="576" 
d="M391 0l17 83h-332l110 568h-84l-127 -651h416z" />
    <glyph glyph-name="m" unicode="m" horiz-adv-x="843" 
d="M647 0l129 661l-419 -434l-252 434l-129 -661h84l81 417l190 -327l314 326l-81 -416h83z" />
    <glyph glyph-name="n" unicode="n" horiz-adv-x="677" 
d="M478 -16l130 667h-83l-87 -447l-333 457l-129 -661h83l87 443z" />
    <glyph glyph-name="o" unicode="o" horiz-adv-x="752" 
d="M438.5 38.5q84.5 44.5 143.5 121t76 166.5q6 33 6 64q0 76 -34.5 137t-96 95.5t-139.5 34.5q-90 0 -174.5 -44.5t-143.5 -120.5t-76 -166q-6 -33 -6 -64q0 -76 34.5 -137t96 -96t140.5 -35q89 0 173.5 44.5zM482.5 548q46.5 -26 72 -71.5t25.5 -102.5q0 -20 -5 -48
q-13 -68 -57.5 -125t-107.5 -90.5t-129 -33.5q-59 0 -105 26t-72 71.5t-26 102.5q0 21 5 49q13 67 57.5 124t107.5 90.5t130 33.5q58 0 104.5 -26z" />
    <glyph glyph-name="p" unicode="p" horiz-adv-x="599" 
d="M59 0l52 265h154q43 0 85 14.5t77 40.5q38 28 62.5 64t31.5 75q3 17 3 33q0 30 -10.5 57t-31.5 48q-27 26 -63.5 40t-78.5 14h-238l-127 -651h84zM168 567h155q51 0 83.5 -26.5t32.5 -65.5q0 -11 -1 -16q-9 -46 -55 -78t-102 -32h-154z" />
    <glyph glyph-name="q" unicode="q" horiz-adv-x="776" 
d="M500 0l-39 51q-99 -57 -196 -57q-79 0 -140.5 35t-96 96t-34.5 137q0 31 6 64q17 90 76 166t143.5 120.5t174.5 44.5q78 0 139.5 -34.5t96 -95.5t34.5 -137q0 -31 -6 -64q-12 -62 -44 -118.5t-80 -101.5l80 -106h-114zM414 113l-132 180l72 56l135 -181q33 33 55.5 73.5
t30.5 84.5q5 28 5 48q0 57 -25.5 102.5t-72 71.5t-104.5 26q-67 0 -130 -33.5t-107.5 -90.5t-57.5 -124q-5 -27 -5 -48q0 -57 26 -102.5t72.5 -71.5t105.5 -26q70 0 132 35z" />
    <glyph glyph-name="r" unicode="r" horiz-adv-x="606" 
d="M434 0h-105l-179 349h93q68 0 110 15q34 14 57 41.5t28 53.5q1 5 1 16q0 38 -32 65t-88 27h-151l-109 -567h-84l127 651h234q46 0 84.5 -15t64.5 -43q39 -45 39 -103q0 -16 -3 -31q-11 -59 -56 -106q-41 -42 -94 -65q-39 -14 -73 -14z" />
    <glyph glyph-name="s" unicode="s" horiz-adv-x="620" 
d="M454 281.5q20 -33.5 20 -72.5q0 -15 -3 -30q-7 -39 -33.5 -74.5t-67.5 -61.5q-76 -51 -173 -51q-99 0 -156 51q-43 36 -51 92l86 44q-1 -4 -1 -12q0 -38 39.5 -65t97.5 -27q41 0 79.5 14.5t64.5 38t31 51.5q1 5 1 14q0 42 -43 67q-27 15 -99 24q-80 7 -117 29
q-40 21 -61.5 55t-21.5 74q0 14 3 29q7 39 34 74.5t68 61.5q79 51 175 51q46 0 86 -13t68 -38q44 -36 50 -92l-86 -44q1 5 1 13q0 38 -39.5 64t-96.5 26q-42 0 -80 -14t-64 -37.5t-32 -51.5q-1 -4 -1 -11q0 -22 13.5 -42t35.5 -30q12 -7 30.5 -11t37 -7t25.5 -4
q40 -5 70 -12t55 -21q35 -18 55 -51.5z" />
    <glyph glyph-name="t" unicode="t" horiz-adv-x="629" 
d="M595 651l-17 -84h-221l-111 -567h-84l110 567h-221l17 84h527z" />
    <glyph glyph-name="u" unicode="u" horiz-adv-x="676" 
d="M328 13.5q50 19.5 93 56.5q42 36 70 83t38 98l78 400h-83l-78 -400q-7 -35 -26 -67t-48 -56q-28 -24 -62 -37.5t-68 -13.5q-33 0 -61 13.5t-48 37.5q-29 37 -29 88q0 17 3 35l78 400h-83l-78 -400q-5 -22 -5 -52q0 -74 43 -129q28 -37 71 -56.5t94 -19.5t101 19.5z" />
    <glyph glyph-name="v" unicode="v" horiz-adv-x="685" 
d="M268 190l296 461h91l-427 -667l-168 667h92z" />
    <glyph glyph-name="w" unicode="w" horiz-adv-x="885" 
d="M545 225l223 426h87l-347 -667l-94 427l-261 -427l-90 667h88l58 -427l247 404z" />
    <glyph glyph-name="x" unicode="x" horiz-adv-x="643" 
d="M607 651l-283 -325l156 -326h-99l-121 252l-219 -252h-99l283 326l-156 325h98l122 -252l219 252h99z" />
    <glyph glyph-name="y" unicode="y" horiz-adv-x="718" 
d="M310 311l280 340h100l-355 -428l-44 -223h-83l44 223l-191 428h99z" />
    <glyph glyph-name="z" unicode="z" horiz-adv-x="589" 
d="M389 0l17 83h-283l404 568h-421l-17 -84h284l-405 -567h421z" />
    <glyph glyph-name="braceleft" unicode="{" horiz-adv-x="357" 
d="M130 159q0 -24 16.5 -44.5t43.5 -31.5l-17 -87q-59 14 -94 54t-35 92q0 14 3 29l20 100l-41 58l62 57l20 99q12 61 66.5 109.5t127.5 64.5l-17 -87q-36 -13 -62 -36.5t-31 -50.5l-20 -104q-6 -25 -33 -52q14 -25 14 -42q0 -7 -1 -10l-21 -106q-1 -4 -1 -12z" />
    <glyph glyph-name="bar" unicode="|" horiz-adv-x="271" 
d="M68 0l126 651h-84l-127 -651h85z" />
    <glyph glyph-name="braceright" unicode="}" horiz-adv-x="358" 
d="M42 120q-26 -24 -63 -37l-17 -87q74 17 128 65.5t66 109.5l20 100l62 58l-40 57l19 99q3 15 3 29q0 52 -35 92t-95 53l-16 -87q28 -11 44.5 -31.5t16.5 -44.5q0 -7 -1 -11l-21 -104q-1 -4 -1 -12q0 -18 13 -40q-26 -27 -31 -52l-21 -106q-5 -27 -31 -51z" />
    <glyph glyph-name="exclamdown" unicode="&#xa1;" horiz-adv-x="261" 
d="M163 579.5q15 12.5 18 29.5t-6.5 29.5t-26.5 12.5t-32.5 -12.5t-18.5 -29.5t7 -29.5t27 -12.5t32 12.5zM-22 0l17 83l93 430h64l-73 -430l-17 -83h-84z" />
    <glyph glyph-name="cent" unicode="&#xa2;" horiz-adv-x="678" 
d="M432.5 39q-61.5 -31 -126.5 -39l-19 -99h-83l19 99q-68 9 -120 45.5t-80.5 94t-28.5 126.5q0 30 6 63q16 83 68 154t126 117.5t156 56.5l20 101h83l-19 -101q57 -7 103.5 -34t78.5 -71l-73 -56q-28 38 -71 59.5t-94 21.5q-67 0 -130 -33.5t-107 -90.5t-57 -124
q-5 -27 -5 -48q0 -57 25.5 -103t71.5 -72t105 -26q56 0 110.5 24.5t98.5 68.5l55 -52q-51 -51 -112.5 -82z" />
    <glyph glyph-name="sterling" unicode="&#xa3;" horiz-adv-x="583" 
d="M406 83l-17 -83h-415l17 83h5q36 0 71 18t59 45.5t29 54.5l17 88h-110l17 83h109q16 76 17 89q8 38 32 74.5t61 64.5q36 29 80 45t86 16h35l-16 -83h-36q-36 0 -71 -18t-59 -45t-29 -54l-17 -89h104l-16 -83h-104l-8 -42q-9 -47 -9 -46q-12 -61 -67 -118h235z" />
    <glyph glyph-name="copyright" unicode="&#xa9;" horiz-adv-x="541" 
d="M291.5 349.5q32.5 14.5 58.5 40.5l-55 52q-10 -12 -24.5 -18t-29.5 -6q-23 0 -37.5 15t-14.5 38q0 8 1 12q6 27 28 45.5t48 18.5q30 0 43 -21l74 56q-16 23 -42.5 35.5t-57.5 12.5q-40 0 -77.5 -19.5t-64 -53.5t-34.5 -74q-3 -13 -3 -28q0 -52 34 -86t88 -34
q33 0 65.5 14.5zM324 305.5q53 27.5 90.5 75t48.5 104.5q4 17 4 39q0 48 -22 86.5t-61 60.5t-89 22q-56 0 -109 -28t-90.5 -76t-48.5 -104q-4 -19 -4 -40q0 -47 22 -85.5t61 -60t88 -21.5q57 0 110 27.5zM371.5 654q35.5 -20 55.5 -55t20 -78q0 -18 -3 -36
q-10 -51 -44.5 -95t-83 -69.5t-99.5 -25.5q-45 0 -80 20t-55 55t-20 78q0 20 4 37q9 52 43 95t82.5 68.5t99.5 25.5q45 0 80.5 -20z" />
    <glyph glyph-name="guillemotleft" unicode="&#xab;" horiz-adv-x="731" 
d="M337 183l-20 -103l-291 246l387 244l-21 -103l-224 -141zM583 183l-19 -103l-292 246l387 244l-20 -103l-224 -141z" />
    <glyph glyph-name="degree" unicode="&#xb0;" horiz-adv-x="399" 
d="M242 430.5q35 18.5 60 50.5t32 69q2 9 2 26q0 49 -31 80.5t-81 31.5q-37 0 -72.5 -18.5t-60.5 -50.5t-32 -69q-2 -9 -2 -25q0 -49 31.5 -81t81.5 -32q37 0 72 18.5zM239 592.5q13 -12.5 13 -31.5q0 -7 -1 -11q-5 -23 -24 -38.5t-41 -15.5q-19 0 -31 12t-12 30q0 8 1 12
q5 23 23 39t40 16q19 0 32 -12.5z" />
    <glyph glyph-name="guillemotright" unicode="&#xbb;" horiz-adv-x="730" 
d="M301 468l19 104l290 -246l-385 -245l19 103l225 142zM54 468l20 104l291 -246l-387 -245l20 103l225 142z" />
    <glyph glyph-name="questiondown" unicode="&#xbf;" horiz-adv-x="590" 
d="M257 480q-5 -27 -18.5 -41t-30.5 -25.5t-23 -15.5q-7 -5 -15.5 -10.5t-12.5 -8.5q-20 -14 -42.5 -31.5t-40.5 -36.5q-50 -53 -64 -120q-3 -16 -3 -33q0 -63 43 -108q26 -27 63.5 -41.5t80.5 -14.5q44 0 87 14.5t79 41.5q38 28 62.5 64.5t31.5 76.5h-83
q-9 -47 -56.5 -80.5t-104.5 -33.5q-51 0 -84.5 27t-33.5 68q0 5 2 19q7 39 33.5 66t69.5 56q5 5 13 10.5t14 9.5q44 30 70 60.5t37 86.5l7 39h-74zM339 586.5q15 12.5 18 29.5t-7 29t-27 12t-31.5 -12.5t-17.5 -28.5q-1 -3 -1 -9q0 -14 9.5 -23.5t24.5 -9.5q17 0 32 12.5z
" />
    <glyph glyph-name="Agrave" unicode="&#xc0;" 
d="M111 126l-82 -126h-92l432 658l161 -658h-90l-30 126h-299zM328 456l-163 -247h224zM343 703h65l-64 105h-94z" />
    <glyph glyph-name="Aacute" unicode="&#xc1;" 
d="M111 126l-82 -126h-92l432 658l161 -658h-90l-30 126h-299zM328 456l-163 -247h224zM336 703h66l134 104h-95z" />
    <glyph glyph-name="Acircumflex" unicode="&#xc2;" 
d="M111 126l-82 -126h-92l432 658l161 -658h-90l-30 126h-299zM328 456l-163 -247h224zM502 703h-66l-54 61l-78 -61h-66l105 105l95 -1z" />
    <glyph glyph-name="Atilde" unicode="&#xc3;" 
d="M111 126l-82 -126h-92l432 658l161 -658h-90l-30 126h-299zM328 456l-163 -247h224zM488 721q24 11 42.5 26t23.5 21l-50 44l-40 -28q-19 -8 -32 -8q-17 0 -35 13q-33 27 -76 27q-35 0 -69 -17q-34 -18 -64 -48l50 -44q3 3 13 12t24 15q18 9 32 9q19 0 36 -14
q35 -26 75 -26q34 0 70 18z" />
    <glyph glyph-name="Adieresis" unicode="&#xc4;" 
d="M111 126l-82 -126h-92l432 658l161 -658h-90l-30 126h-299zM328 456l-163 -247h224zM265 774q-14 -12 -19 -29q-3 -17 7 -29.5t27 -12.5t31.5 12.5t18.5 29.5q1 3 1 8q0 14 -10 23.5t-25 9.5q-17 0 -31 -12zM454.5 774q-14.5 -12 -18.5 -29q-1 -3 -1 -9q0 -14 9.5 -23.5
t24.5 -9.5q17 0 32 12.5t18 29.5q1 3 1 8q0 14 -10 23.5t-24 9.5q-17 0 -31.5 -12z" />
    <glyph glyph-name="Aring" unicode="&#xc5;" 
d="M111 126l-82 -126h-92l432 658l161 -658h-90l-30 126h-299zM328 456l-163 -247h224zM448.5 732q35.5 29 43.5 70q2 12 2 18q0 35 -23 58t-59 23q-40 0 -75 -29t-43 -70q-2 -12 -2 -18q0 -35 22.5 -58t58.5 -23q40 0 75.5 29zM415 820q6 -8 4 -18q-2 -11 -11 -18.5
t-20 -7.5t-17 7.5t-4 18.5q2 10 11.5 18t19.5 8q11 0 17 -8z" />
    <glyph glyph-name="AE" unicode="&#xc6;" horiz-adv-x="915" 
d="M831 568h-332l-38 -200h253l-16 -84h-254l-38 -201h331l-16 -83h-416l27 138h-211l-92 -138h-92l428 651h483zM176 223h172l67 345h-13z" />
    <glyph glyph-name="Ccedilla" unicode="&#xc7;" horiz-adv-x="679" 
d="M413 26q73 32 132 92l-55 52q-43 -44 -98.5 -68.5t-111.5 -24.5q-58 0 -104.5 26.5t-72 72t-25.5 102.5q0 20 5 48q13 67 57.5 124.5t107.5 91t130 33.5q51 0 94 -21t71 -60l73 55q-36 52 -94.5 80.5t-128.5 28.5q-89 0 -173.5 -44.5t-143.5 -121t-76 -166.5
q-6 -33 -6 -64q0 -76 34 -137t95.5 -96t140.5 -35q76 0 149 32zM309 -166q19 13 31.5 31t16.5 37q1 5 1 15q0 32 -22 54q-13 12 -34 20l2 9h-73l-15 -77h37q14 0 23.5 -6.5t7.5 -14.5q-2 -7 -13.5 -14t-25.5 -7q-15 0 -25 7t-8 14h-73q-1 -5 -1 -15q0 -32 23 -53
q25 -25 69 -25t79 25z" />
    <glyph glyph-name="Egrave" unicode="&#xc8;" horiz-adv-x="586" 
d="M391 0l17 83h-333l38 201h255l17 84h-255l38 199h333l17 84h-416l-127 -651h416zM291 703h65l-64 105h-94z" />
    <glyph glyph-name="Eacute" unicode="&#xc9;" horiz-adv-x="586" 
d="M391 0l17 83h-333l38 201h255l17 84h-255l38 199h333l17 84h-416l-127 -651h416zM274 703h66l134 104h-95z" />
    <glyph glyph-name="Ecircumflex" unicode="&#xca;" horiz-adv-x="586" 
d="M391 0l17 83h-333l38 201h255l17 84h-255l38 199h333l17 84h-416l-127 -651h416zM446 703h-66l-54 61l-78 -61h-66l105 105l95 -1z" />
    <glyph glyph-name="Edieresis" unicode="&#xcb;" horiz-adv-x="586" 
d="M391 0l17 83h-333l38 201h255l17 84h-255l38 199h333l17 84h-416l-127 -651h416zM204 774q-14 -12 -19 -29q-3 -17 7 -29.5t27 -12.5t31.5 12.5t18.5 29.5q1 3 1 8q0 14 -10 23.5t-25 9.5q-17 0 -31 -12zM393.5 774q-14.5 -12 -18.5 -29q-1 -3 -1 -9q0 -14 9.5 -23.5
t24.5 -9.5q17 0 32 12.5t18 29.5q1 3 1 8q0 14 -10 23.5t-24 9.5q-17 0 -31.5 -12z" />
    <glyph glyph-name="Igrave" unicode="&#xcc;" horiz-adv-x="289" 
d="M82 0l127 651h-84l-126 -651h83zM141 703h66l-65 105h-93z" />
    <glyph glyph-name="Iacute" unicode="&#xcd;" horiz-adv-x="278" 
d="M70 0l127 651h-84l-127 -651h84zM131 703h66l134 104h-95z" />
    <glyph glyph-name="Icircumflex" unicode="&#xce;" horiz-adv-x="290" 
d="M74 0l127 651h-83l-127 -651h83zM300 703h-66l-54 61l-78 -61h-65l105 105l94 -1z" />
    <glyph glyph-name="Idieresis" unicode="&#xcf;" horiz-adv-x="290" 
d="M72 0l127 651h-83l-127 -651h83zM57.5 774q-14.5 -12 -18.5 -29q-3 -17 6.5 -29.5t26.5 -12.5t32 12.5t18 29.5q1 3 1 9q0 14 -9.5 23t-24.5 9q-17 0 -31.5 -12zM247 774q-14 -12 -19 -29q-3 -17 7 -29.5t27 -12.5t31.5 12.5t18.5 29.5q1 3 1 8q0 14 -10 23.5t-25 9.5
q-17 0 -31 -12z" />
    <glyph glyph-name="Eth" unicode="&#xd0;" horiz-adv-x="730" 
d="M638 395q0 -36 -7 -68q-12 -65 -45 -123.5t-82 -103.5q-52 -48 -117 -74t-134 -26h-197l55 284h-81l17 83h81l55 284h197q68 0 123 -25.5t89 -73.5q46 -67 46 -157zM401 118.5q59 34.5 97 90.5t50 118q5 23 5 52q0 66 -34 117q-25 35 -64.5 53.5t-91.5 18.5h-113
l-39 -201h204l-17 -83h-204l-38 -200h113q73 0 132 34.5z" />
    <glyph glyph-name="Ntilde" unicode="&#xd1;" horiz-adv-x="677" 
d="M478 -16l130 667h-83l-87 -447l-333 457l-129 -661h83l87 443zM483 721q24 11 42.5 26t23.5 21l-50 44l-40 -28q-19 -8 -32 -8q-17 0 -35 13q-33 27 -76 27q-35 0 -69 -17q-34 -18 -64 -48l50 -44q3 3 13 12t24 15q18 9 32 9q19 0 36 -14q35 -26 75 -26q34 0 70 18z" />
    <glyph glyph-name="Ograve" unicode="&#xd2;" horiz-adv-x="752" 
d="M438.5 38.5q84.5 44.5 143.5 121t76 166.5q6 33 6 64q0 76 -34.5 137t-96 95.5t-139.5 34.5q-90 0 -174.5 -44.5t-143.5 -120.5t-76 -166q-6 -33 -6 -64q0 -76 34.5 -137t96 -96t140.5 -35q89 0 173.5 44.5zM482.5 548q46.5 -26 72 -71.5t25.5 -102.5q0 -20 -5 -48
q-13 -68 -57.5 -125t-107.5 -90.5t-129 -33.5q-59 0 -105 26t-72 71.5t-26 102.5q0 21 5 49q13 67 57.5 124t107.5 90.5t130 33.5q58 0 104.5 -26zM366 703h65l-64 105h-94z" />
    <glyph glyph-name="Oacute" unicode="&#xd3;" horiz-adv-x="752" 
d="M438.5 38.5q84.5 44.5 143.5 121t76 166.5q6 33 6 64q0 76 -34.5 137t-96 95.5t-139.5 34.5q-90 0 -174.5 -44.5t-143.5 -120.5t-76 -166q-6 -33 -6 -64q0 -76 34.5 -137t96 -96t140.5 -35q89 0 173.5 44.5zM482.5 548q46.5 -26 72 -71.5t25.5 -102.5q0 -20 -5 -48
q-13 -68 -57.5 -125t-107.5 -90.5t-129 -33.5q-59 0 -105 26t-72 71.5t-26 102.5q0 21 5 49q13 67 57.5 124t107.5 90.5t130 33.5q58 0 104.5 -26zM354 703h66l134 104h-95z" />
    <glyph glyph-name="Ocircumflex" unicode="&#xd4;" horiz-adv-x="752" 
d="M438.5 38.5q84.5 44.5 143.5 121t76 166.5q6 33 6 64q0 76 -34.5 137t-96 95.5t-139.5 34.5q-90 0 -174.5 -44.5t-143.5 -120.5t-76 -166q-6 -33 -6 -64q0 -76 34.5 -137t96 -96t140.5 -35q89 0 173.5 44.5zM482.5 548q46.5 -26 72 -71.5t25.5 -102.5q0 -20 -5 -48
q-13 -68 -57.5 -125t-107.5 -90.5t-129 -33.5q-59 0 -105 26t-72 71.5t-26 102.5q0 21 5 49q13 67 57.5 124t107.5 90.5t130 33.5q58 0 104.5 -26zM524 703h-66l-54 61l-78 -61h-66l105 105l95 -1z" />
    <glyph glyph-name="Otilde" unicode="&#xd5;" horiz-adv-x="752" 
d="M438.5 38.5q84.5 44.5 143.5 121t76 166.5q6 33 6 64q0 76 -34.5 137t-96 95.5t-139.5 34.5q-90 0 -174.5 -44.5t-143.5 -120.5t-76 -166q-6 -33 -6 -64q0 -76 34.5 -137t96 -96t140.5 -35q89 0 173.5 44.5zM482.5 548q46.5 -26 72 -71.5t25.5 -102.5q0 -20 -5 -48
q-13 -68 -57.5 -125t-107.5 -90.5t-129 -33.5q-59 0 -105 26t-72 71.5t-26 102.5q0 21 5 49q13 67 57.5 124t107.5 90.5t130 33.5q58 0 104.5 -26zM512 721q24 11 42.5 26t23.5 21l-50 44l-40 -28q-19 -8 -32 -8q-17 0 -35 13q-33 27 -76 27q-35 0 -69 -17q-34 -18 -64 -48
l50 -44q3 3 13 12t24 15q18 9 32 9q19 0 36 -14q35 -26 75 -26q34 0 70 18z" />
    <glyph glyph-name="Odieresis" unicode="&#xd6;" horiz-adv-x="752" 
d="M438.5 38.5q84.5 44.5 143.5 121t76 166.5q6 33 6 64q0 76 -34.5 137t-96 95.5t-139.5 34.5q-90 0 -174.5 -44.5t-143.5 -120.5t-76 -166q-6 -33 -6 -64q0 -76 34.5 -137t96 -96t140.5 -35q89 0 173.5 44.5zM482.5 548q46.5 -26 72 -71.5t25.5 -102.5q0 -20 -5 -48
q-13 -68 -57.5 -125t-107.5 -90.5t-129 -33.5q-59 0 -105 26t-72 71.5t-26 102.5q0 21 5 49q13 67 57.5 124t107.5 90.5t130 33.5q58 0 104.5 -26zM287 774q-14 -12 -19 -29q-3 -17 7 -29.5t27 -12.5t31.5 12.5t18.5 29.5q1 3 1 8q0 14 -10 23.5t-25 9.5q-17 0 -31 -12z
M476.5 774q-14.5 -12 -18.5 -29q-1 -3 -1 -9q0 -14 9.5 -23.5t24.5 -9.5q17 0 32 12.5t18 29.5q1 3 1 8q0 14 -10 23.5t-24 9.5q-17 0 -31.5 -12z" />
    <glyph glyph-name="multiply" unicode="&#xd7;" horiz-adv-x="445" 
d="M356 426l-121 -100l80 -100l-70 -60l-81 101l-120 -101l-47 60l119 100l-81 100l71 60l81 -101l121 101z" />
    <glyph glyph-name="Oslash" unicode="&#xd8;" horiz-adv-x="752" 
d="M644 502q21 -50 21 -108q0 -26 -7 -65q-17 -90 -76 -166t-143.5 -121t-173.5 -45q-67 0 -125 26l-17 -23h-97l51 66q-40 37 -61.5 88t-21.5 111q0 31 6 64q18 90 77 166t143 120.5t174 44.5q71 0 127 -28l16 19h96l-49 -62q39 -37 60 -87zM79 282q0 -43 14.5 -80
t41.5 -64l330 422q-38 16 -86 16q-67 0 -130.5 -33.5t-108 -90t-57.5 -123.5q-4 -21 -4 -47zM411 113.5q63 33.5 107 90.5t57 125q5 28 5 49q0 40 -14 75.5t-40 62.5l-327 -420q35 -16 83 -16q66 0 129 33.5z" />
    <glyph glyph-name="Ugrave" unicode="&#xd9;" horiz-adv-x="676" 
d="M328 13.5q50 19.5 93 56.5q42 36 70 83t38 98l78 400h-83l-78 -400q-7 -35 -26 -67t-48 -56q-28 -24 -62 -37.5t-68 -13.5q-33 0 -61 13.5t-48 37.5q-29 37 -29 88q0 17 3 35l78 400h-83l-78 -400q-5 -22 -5 -52q0 -74 43 -129q28 -37 71 -56.5t94 -19.5t101 19.5z
M323 716h65l-64 105h-94z" />
    <glyph glyph-name="Uacute" unicode="&#xda;" horiz-adv-x="676" 
d="M328 13.5q50 19.5 93 56.5q42 36 70 83t38 98l78 400h-83l-78 -400q-7 -35 -26 -67t-48 -56q-28 -24 -62 -37.5t-68 -13.5q-33 0 -61 13.5t-48 37.5q-29 37 -29 88q0 17 3 35l78 400h-83l-78 -400q-5 -22 -5 -52q0 -74 43 -129q28 -37 71 -56.5t94 -19.5t101 19.5z
M311 703h66l134 104h-95z" />
    <glyph glyph-name="Ucircumflex" unicode="&#xdb;" horiz-adv-x="676" 
d="M328 13.5q50 19.5 93 56.5q42 36 70 83t38 98l78 400h-83l-78 -400q-7 -35 -26 -67t-48 -56q-28 -24 -62 -37.5t-68 -13.5q-33 0 -61 13.5t-48 37.5q-29 37 -29 88q0 17 3 35l78 400h-83l-78 -400q-5 -22 -5 -52q0 -74 43 -129q28 -37 71 -56.5t94 -19.5t101 19.5z
M485 703h-66l-54 61l-78 -61h-66l105 105l95 -1z" />
    <glyph glyph-name="Udieresis" unicode="&#xdc;" horiz-adv-x="676" 
d="M328 13.5q50 19.5 93 56.5q42 36 70 83t38 98l78 400h-83l-78 -400q-7 -35 -26 -67t-48 -56q-28 -24 -62 -37.5t-68 -13.5q-33 0 -61 13.5t-48 37.5q-29 37 -29 88q0 17 3 35l78 400h-83l-78 -400q-5 -22 -5 -52q0 -74 43 -129q28 -37 71 -56.5t94 -19.5t101 19.5z
M245 774q-14 -12 -19 -29q-3 -17 7 -29.5t27 -12.5t31.5 12.5t18.5 29.5q1 3 1 8q0 14 -10 23.5t-25 9.5q-17 0 -31 -12zM434.5 774q-14.5 -12 -18.5 -29q-1 -3 -1 -9q0 -14 9.5 -23.5t24.5 -9.5q17 0 32 12.5t18 29.5q1 3 1 8q0 14 -10 23.5t-24 9.5q-17 0 -31.5 -12z" />
    <glyph glyph-name="Yacute" unicode="&#xdd;" horiz-adv-x="718" 
d="M310 311l280 340h100l-355 -428l-44 -223h-83l44 223l-191 428h99zM338 703h66l134 104h-95z" />
    <glyph glyph-name="germandbls" unicode="&#xdf;" horiz-adv-x="605" 
d="M484 226q0 -10 -4 -34q-7 -37 -30 -72t-58 -62q-37 -28 -81.5 -43t-90.5 -15h-68l16 83h69q42 0 76.5 15.5t56.5 40.5t27 53q2 10 2 16q0 22 -13 43t-38 33q-36 18 -102 18h-36l17 83h9q43 0 78 26.5t43 64.5q1 5 1 15q0 33 -24 54.5t-63 21.5q-42 0 -77 -27t-42 -64
l-93 -476h-84l93 476q7 35 27.5 67.5t52.5 57.5q31 23 67.5 36t72.5 13q37 0 68 -12.5t53 -36.5q34 -39 34 -93q0 -15 -3 -32q-5 -30 -20.5 -58t-39.5 -50q6 -3 18 -7q45 -23 66 -63q20 -34 20 -72z" />
    <glyph glyph-name="agrave" unicode="&#xe0;" 
d="M111 126l-82 -126h-92l432 658l161 -658h-90l-30 126h-299zM328 456l-163 -247h224zM343 703h65l-64 105h-94z" />
    <glyph glyph-name="aacute" unicode="&#xe1;" 
d="M111 126l-82 -126h-92l432 658l161 -658h-90l-30 126h-299zM328 456l-163 -247h224zM336 703h66l134 104h-95z" />
    <glyph glyph-name="acircumflex" unicode="&#xe2;" 
d="M111 126l-82 -126h-92l432 658l161 -658h-90l-30 126h-299zM328 456l-163 -247h224zM502 703h-66l-54 61l-78 -61h-66l105 105l95 -1z" />
    <glyph glyph-name="atilde" unicode="&#xe3;" 
d="M111 126l-82 -126h-92l432 658l161 -658h-90l-30 126h-299zM328 456l-163 -247h224zM488 721q24 11 42.5 26t23.5 21l-50 44l-40 -28q-19 -8 -32 -8q-17 0 -35 13q-33 27 -76 27q-35 0 -69 -17q-34 -18 -64 -48l50 -44q3 3 13 12t24 15q18 9 32 9q19 0 36 -14
q35 -26 75 -26q34 0 70 18z" />
    <glyph glyph-name="adieresis" unicode="&#xe4;" 
d="M111 126l-82 -126h-92l432 658l161 -658h-90l-30 126h-299zM328 456l-163 -247h224zM265 774q-14 -12 -19 -29q-3 -17 7 -29.5t27 -12.5t31.5 12.5t18.5 29.5q1 3 1 8q0 14 -10 23.5t-25 9.5q-17 0 -31 -12zM454.5 774q-14.5 -12 -18.5 -29q-1 -3 -1 -9q0 -14 9.5 -23.5
t24.5 -9.5q17 0 32 12.5t18 29.5q1 3 1 8q0 14 -10 23.5t-24 9.5q-17 0 -31.5 -12z" />
    <glyph glyph-name="aring" unicode="&#xe5;" 
d="M111 126l-82 -126h-92l432 658l161 -658h-90l-30 126h-299zM328 456l-163 -247h224zM448.5 732q35.5 29 43.5 70q2 12 2 18q0 35 -23 58t-59 23q-40 0 -75 -29t-43 -70q-2 -12 -2 -18q0 -35 22.5 -58t58.5 -23q40 0 75.5 29zM415 820q6 -8 4 -18q-2 -11 -11 -18.5
t-20 -7.5t-17 7.5t-4 18.5q2 10 11.5 18t19.5 8q11 0 17 -8z" />
    <glyph glyph-name="ae" unicode="&#xe6;" horiz-adv-x="915" 
d="M831 568h-332l-38 -200h253l-16 -84h-254l-38 -201h331l-16 -83h-416l27 138h-211l-92 -138h-92l428 651h483zM176 223h172l67 345h-13z" />
    <glyph glyph-name="ccedilla" unicode="&#xe7;" horiz-adv-x="679" 
d="M413 26q73 32 132 92l-55 52q-43 -44 -98.5 -68.5t-111.5 -24.5q-58 0 -104.5 26.5t-72 72t-25.5 102.5q0 20 5 48q13 67 57.5 124.5t107.5 91t130 33.5q51 0 94 -21t71 -60l73 55q-36 52 -94.5 80.5t-128.5 28.5q-89 0 -173.5 -44.5t-143.5 -121t-76 -166.5
q-6 -33 -6 -64q0 -76 34 -137t95.5 -96t140.5 -35q76 0 149 32zM309 -166q19 13 31.5 31t16.5 37q1 5 1 15q0 32 -22 54q-13 12 -34 20l2 9h-73l-15 -77h37q14 0 23.5 -6.5t7.5 -14.5q-2 -7 -13.5 -14t-25.5 -7q-15 0 -25 7t-8 14h-73q-1 -5 -1 -15q0 -32 23 -53
q25 -25 69 -25t79 25z" />
    <glyph glyph-name="egrave" unicode="&#xe8;" horiz-adv-x="586" 
d="M391 0l17 83h-333l38 201h255l17 84h-255l38 199h333l17 84h-416l-127 -651h416zM291 703h65l-64 105h-94z" />
    <glyph glyph-name="eacute" unicode="&#xe9;" horiz-adv-x="586" 
d="M391 0l17 83h-333l38 201h255l17 84h-255l38 199h333l17 84h-416l-127 -651h416zM274 703h66l134 104h-95z" />
    <glyph glyph-name="ecircumflex" unicode="&#xea;" horiz-adv-x="586" 
d="M391 0l17 83h-333l38 201h255l17 84h-255l38 199h333l17 84h-416l-127 -651h416zM446 703h-66l-54 61l-78 -61h-66l105 105l95 -1z" />
    <glyph glyph-name="edieresis" unicode="&#xeb;" horiz-adv-x="586" 
d="M391 0l17 83h-333l38 201h255l17 84h-255l38 199h333l17 84h-416l-127 -651h416zM204 774q-14 -12 -19 -29q-3 -17 7 -29.5t27 -12.5t31.5 12.5t18.5 29.5q1 3 1 8q0 14 -10 23.5t-25 9.5q-17 0 -31 -12zM393.5 774q-14.5 -12 -18.5 -29q-1 -3 -1 -9q0 -14 9.5 -23.5
t24.5 -9.5q17 0 32 12.5t18 29.5q1 3 1 8q0 14 -10 23.5t-24 9.5q-17 0 -31.5 -12z" />
    <glyph glyph-name="igrave" unicode="&#xec;" horiz-adv-x="289" 
d="M82 0l127 651h-84l-126 -651h83zM141 703h66l-65 105h-93z" />
    <glyph glyph-name="iacute" unicode="&#xed;" horiz-adv-x="278" 
d="M70 0l127 651h-84l-127 -651h84zM131 703h66l134 104h-95z" />
    <glyph glyph-name="icircumflex" unicode="&#xee;" horiz-adv-x="290" 
d="M74 0l127 651h-83l-127 -651h83zM300 703h-66l-54 61l-78 -61h-65l105 105l94 -1z" />
    <glyph glyph-name="idieresis" unicode="&#xef;" horiz-adv-x="290" 
d="M72 0l127 651h-83l-127 -651h83zM57.5 774q-14.5 -12 -18.5 -29q-3 -17 6.5 -29.5t26.5 -12.5t32 12.5t18 29.5q1 3 1 9q0 14 -9.5 23t-24.5 9q-17 0 -31.5 -12zM247 774q-14 -12 -19 -29q-3 -17 7 -29.5t27 -12.5t31.5 12.5t18.5 29.5q1 3 1 8q0 14 -10 23.5t-25 9.5
q-17 0 -31 -12z" />
    <glyph glyph-name="ntilde" unicode="&#xf1;" horiz-adv-x="677" 
d="M478 -16l130 667h-83l-87 -447l-333 457l-129 -661h83l87 443zM483 721q24 11 42.5 26t23.5 21l-50 44l-40 -28q-19 -8 -32 -8q-17 0 -35 13q-33 27 -76 27q-35 0 -69 -17q-34 -18 -64 -48l50 -44q3 3 13 12t24 15q18 9 32 9q19 0 36 -14q35 -26 75 -26q34 0 70 18z" />
    <glyph glyph-name="ograve" unicode="&#xf2;" horiz-adv-x="752" 
d="M438.5 38.5q84.5 44.5 143.5 121t76 166.5q6 33 6 64q0 76 -34.5 137t-96 95.5t-139.5 34.5q-90 0 -174.5 -44.5t-143.5 -120.5t-76 -166q-6 -33 -6 -64q0 -76 34.5 -137t96 -96t140.5 -35q89 0 173.5 44.5zM482.5 548q46.5 -26 72 -71.5t25.5 -102.5q0 -20 -5 -48
q-13 -68 -57.5 -125t-107.5 -90.5t-129 -33.5q-59 0 -105 26t-72 71.5t-26 102.5q0 21 5 49q13 67 57.5 124t107.5 90.5t130 33.5q58 0 104.5 -26zM366 703h65l-64 105h-94z" />
    <glyph glyph-name="oacute" unicode="&#xf3;" horiz-adv-x="752" 
d="M438.5 38.5q84.5 44.5 143.5 121t76 166.5q6 33 6 64q0 76 -34.5 137t-96 95.5t-139.5 34.5q-90 0 -174.5 -44.5t-143.5 -120.5t-76 -166q-6 -33 -6 -64q0 -76 34.5 -137t96 -96t140.5 -35q89 0 173.5 44.5zM482.5 548q46.5 -26 72 -71.5t25.5 -102.5q0 -20 -5 -48
q-13 -68 -57.5 -125t-107.5 -90.5t-129 -33.5q-59 0 -105 26t-72 71.5t-26 102.5q0 21 5 49q13 67 57.5 124t107.5 90.5t130 33.5q58 0 104.5 -26zM354 703h66l134 104h-95z" />
    <glyph glyph-name="ocircumflex" unicode="&#xf4;" horiz-adv-x="752" 
d="M438.5 38.5q84.5 44.5 143.5 121t76 166.5q6 33 6 64q0 76 -34.5 137t-96 95.5t-139.5 34.5q-90 0 -174.5 -44.5t-143.5 -120.5t-76 -166q-6 -33 -6 -64q0 -76 34.5 -137t96 -96t140.5 -35q89 0 173.5 44.5zM482.5 548q46.5 -26 72 -71.5t25.5 -102.5q0 -20 -5 -48
q-13 -68 -57.5 -125t-107.5 -90.5t-129 -33.5q-59 0 -105 26t-72 71.5t-26 102.5q0 21 5 49q13 67 57.5 124t107.5 90.5t130 33.5q58 0 104.5 -26zM524 703h-66l-54 61l-78 -61h-66l105 105l95 -1z" />
    <glyph glyph-name="otilde" unicode="&#xf5;" horiz-adv-x="752" 
d="M438.5 38.5q84.5 44.5 143.5 121t76 166.5q6 33 6 64q0 76 -34.5 137t-96 95.5t-139.5 34.5q-90 0 -174.5 -44.5t-143.5 -120.5t-76 -166q-6 -33 -6 -64q0 -76 34.5 -137t96 -96t140.5 -35q89 0 173.5 44.5zM482.5 548q46.5 -26 72 -71.5t25.5 -102.5q0 -20 -5 -48
q-13 -68 -57.5 -125t-107.5 -90.5t-129 -33.5q-59 0 -105 26t-72 71.5t-26 102.5q0 21 5 49q13 67 57.5 124t107.5 90.5t130 33.5q58 0 104.5 -26zM512 721q24 11 42.5 26t23.5 21l-50 44l-40 -28q-19 -8 -32 -8q-17 0 -35 13q-33 27 -76 27q-35 0 -69 -17q-34 -18 -64 -48
l50 -44q3 3 13 12t24 15q18 9 32 9q19 0 36 -14q35 -26 75 -26q34 0 70 18z" />
    <glyph glyph-name="odieresis" unicode="&#xf6;" horiz-adv-x="752" 
d="M438.5 38.5q84.5 44.5 143.5 121t76 166.5q6 33 6 64q0 76 -34.5 137t-96 95.5t-139.5 34.5q-90 0 -174.5 -44.5t-143.5 -120.5t-76 -166q-6 -33 -6 -64q0 -76 34.5 -137t96 -96t140.5 -35q89 0 173.5 44.5zM482.5 548q46.5 -26 72 -71.5t25.5 -102.5q0 -20 -5 -48
q-13 -68 -57.5 -125t-107.5 -90.5t-129 -33.5q-59 0 -105 26t-72 71.5t-26 102.5q0 21 5 49q13 67 57.5 124t107.5 90.5t130 33.5q58 0 104.5 -26zM287 774q-14 -12 -19 -29q-3 -17 7 -29.5t27 -12.5t31.5 12.5t18.5 29.5q1 3 1 8q0 14 -10 23.5t-25 9.5q-17 0 -31 -12z
M476.5 774q-14.5 -12 -18.5 -29q-1 -3 -1 -9q0 -14 9.5 -23.5t24.5 -9.5q17 0 32 12.5t18 29.5q1 3 1 8q0 14 -10 23.5t-24 9.5q-17 0 -31.5 -12z" />
    <glyph glyph-name="oslash" unicode="&#xf8;" horiz-adv-x="752" 
d="M644 502q21 -50 21 -108q0 -26 -7 -65q-17 -90 -76 -166t-143.5 -121t-173.5 -45q-67 0 -125 26l-17 -23h-97l51 66q-40 37 -61.5 88t-21.5 111q0 31 6 64q18 90 77 166t143 120.5t174 44.5q71 0 127 -28l16 19h96l-49 -62q39 -37 60 -87zM79 282q0 -43 14.5 -80
t41.5 -64l330 422q-38 16 -86 16q-67 0 -130.5 -33.5t-108 -90t-57.5 -123.5q-4 -21 -4 -47zM411 113.5q63 33.5 107 90.5t57 125q5 28 5 49q0 40 -14 75.5t-40 62.5l-327 -420q35 -16 83 -16q66 0 129 33.5z" />
    <glyph glyph-name="ugrave" unicode="&#xf9;" horiz-adv-x="676" 
d="M328 13.5q50 19.5 93 56.5q42 36 70 83t38 98l78 400h-83l-78 -400q-7 -35 -26 -67t-48 -56q-28 -24 -62 -37.5t-68 -13.5q-33 0 -61 13.5t-48 37.5q-29 37 -29 88q0 17 3 35l78 400h-83l-78 -400q-5 -22 -5 -52q0 -74 43 -129q28 -37 71 -56.5t94 -19.5t101 19.5z
M323 716h65l-64 105h-94z" />
    <glyph glyph-name="uacute" unicode="&#xfa;" horiz-adv-x="676" 
d="M328 13.5q50 19.5 93 56.5q42 36 70 83t38 98l78 400h-83l-78 -400q-7 -35 -26 -67t-48 -56q-28 -24 -62 -37.5t-68 -13.5q-33 0 -61 13.5t-48 37.5q-29 37 -29 88q0 17 3 35l78 400h-83l-78 -400q-5 -22 -5 -52q0 -74 43 -129q28 -37 71 -56.5t94 -19.5t101 19.5z
M311 703h66l134 104h-95z" />
    <glyph glyph-name="ucircumflex" unicode="&#xfb;" horiz-adv-x="676" 
d="M328 13.5q50 19.5 93 56.5q42 36 70 83t38 98l78 400h-83l-78 -400q-7 -35 -26 -67t-48 -56q-28 -24 -62 -37.5t-68 -13.5q-33 0 -61 13.5t-48 37.5q-29 37 -29 88q0 17 3 35l78 400h-83l-78 -400q-5 -22 -5 -52q0 -74 43 -129q28 -37 71 -56.5t94 -19.5t101 19.5z
M485 703h-66l-54 61l-78 -61h-66l105 105l95 -1z" />
    <glyph glyph-name="udieresis" unicode="&#xfc;" horiz-adv-x="676" 
d="M328 13.5q50 19.5 93 56.5q42 36 70 83t38 98l78 400h-83l-78 -400q-7 -35 -26 -67t-48 -56q-28 -24 -62 -37.5t-68 -13.5q-33 0 -61 13.5t-48 37.5q-29 37 -29 88q0 17 3 35l78 400h-83l-78 -400q-5 -22 -5 -52q0 -74 43 -129q28 -37 71 -56.5t94 -19.5t101 19.5z
M245 774q-14 -12 -19 -29q-3 -17 7 -29.5t27 -12.5t31.5 12.5t18.5 29.5q1 3 1 8q0 14 -10 23.5t-25 9.5q-17 0 -31 -12zM434.5 774q-14.5 -12 -18.5 -29q-1 -3 -1 -9q0 -14 9.5 -23.5t24.5 -9.5q17 0 32 12.5t18 29.5q1 3 1 8q0 14 -10 23.5t-24 9.5q-17 0 -31.5 -12z" />
    <glyph glyph-name="yacute" unicode="&#xfd;" horiz-adv-x="718" 
d="M310 311l280 340h100l-355 -428l-44 -223h-83l44 223l-191 428h99zM338 703h66l134 104h-95z" />
    <glyph glyph-name="ydieresis" unicode="&#xff;" horiz-adv-x="718" 
d="M310 311l280 340h100l-355 -428l-44 -223h-83l44 223l-191 428h99zM276 774q-14 -12 -19 -29q-3 -17 7 -29.5t27 -12.5t31.5 12.5t18.5 29.5q1 3 1 8q0 14 -10 23.5t-25 9.5q-17 0 -31 -12zM465.5 774q-14.5 -12 -18.5 -29q-1 -3 -1 -9q0 -14 9.5 -23.5t24.5 -9.5
q17 0 32 12.5t18 29.5q1 3 1 8q0 14 -10 23.5t-24 9.5q-17 0 -31.5 -12z" />
    <glyph glyph-name="OE" unicode="&#x152;" horiz-adv-x="1075" 
d="M658 568l-38 -200h255l-17 -84h-255l-38 -201h333l-17 -83h-416l12 62q-48 -32 -102.5 -49.5t-109.5 -17.5q-79 0 -140.5 35t-96 96.5t-34.5 137.5q0 30 6 63q17 90 76 166t143.5 120.5t174.5 44.5q110 0 185 -67l13 60h416l-17 -83h-333zM399 105.5q57 27.5 101 75.5
l56 291q-24 48 -70.5 75.5t-106.5 27.5q-67 0 -130.5 -33.5t-108 -90.5t-57.5 -124q-5 -28 -5 -48q0 -57 26 -103t72.5 -72t105.5 -26q60 0 117 27.5z" />
    <glyph glyph-name="oe" unicode="&#x153;" horiz-adv-x="1075" 
d="M658 568l-38 -200h255l-17 -84h-255l-38 -201h333l-17 -83h-416l12 62q-48 -32 -102.5 -49.5t-109.5 -17.5q-79 0 -140.5 35t-96 96.5t-34.5 137.5q0 30 6 63q17 90 76 166t143.5 120.5t174.5 44.5q110 0 185 -67l13 60h416l-17 -83h-333zM399 105.5q57 27.5 101 75.5
l56 291q-24 48 -70.5 75.5t-106.5 27.5q-67 0 -130.5 -33.5t-108 -90.5t-57.5 -124q-5 -28 -5 -48q0 -57 26 -103t72.5 -72t105.5 -26q60 0 117 27.5z" />
    <glyph glyph-name="Wcircumflex" unicode="&#x174;" horiz-adv-x="885" 
d="M545 225l223 426h87l-347 -667l-94 427l-261 -427l-90 667h88l58 -427l247 404zM591 703h-66l-54 61l-78 -61h-66l105 105l95 -1z" />
    <glyph glyph-name="wcircumflex" unicode="&#x175;" horiz-adv-x="885" 
d="M545 225l223 426h87l-347 -667l-94 427l-261 -427l-90 667h88l58 -427l247 404zM591 703h-66l-54 61l-78 -61h-66l105 105l95 -1z" />
    <glyph glyph-name="Ycircumflex" unicode="&#x176;" horiz-adv-x="718" 
d="M310 311l280 340h100l-355 -428l-44 -223h-83l44 223l-191 428h99zM510 703h-66l-54 61l-78 -61h-66l105 105l95 -1z" />
    <glyph glyph-name="ycircumflex" unicode="&#x177;" horiz-adv-x="718" 
d="M310 311l280 340h100l-355 -428l-44 -223h-83l44 223l-191 428h99zM510 703h-66l-54 61l-78 -61h-66l105 105l95 -1z" />
    <glyph glyph-name="Ydieresis" unicode="&#x178;" horiz-adv-x="718" 
d="M310 311l280 340h100l-355 -428l-44 -223h-83l44 223l-191 428h99zM276 774q-14 -12 -19 -29q-3 -17 7 -29.5t27 -12.5t31.5 12.5t18.5 29.5q1 3 1 8q0 14 -10 23.5t-25 9.5q-17 0 -31 -12zM465.5 774q-14.5 -12 -18.5 -29q-1 -3 -1 -9q0 -14 9.5 -23.5t24.5 -9.5
q17 0 32 12.5t18 29.5q1 3 1 8q0 14 -10 23.5t-24 9.5q-17 0 -31.5 -12z" />
    <glyph glyph-name="gravecomb" unicode="&#x300;" horiz-adv-x="0" 
d="M-50 703h65l-64 105h-94z" />
    <glyph glyph-name="acutecomb" unicode="&#x301;" horiz-adv-x="0" 
d="M-164 703h66l134 104h-95z" />
    <glyph glyph-name="uni0302" unicode="&#x302;" horiz-adv-x="0" 
d="M16 703h-66l-54 61l-78 -61h-66l105 105l95 -1z" />
    <glyph glyph-name="tildecomb" unicode="&#x303;" horiz-adv-x="0" 
d="M-202 721q24 11 42.5 26t23.5 21l-50 44l-40 -28q-19 -8 -32 -8q-17 0 -35 13q-33 27 -76 27q-35 0 -69 -17q-34 -18 -64 -48l50 -44q3 3 13 12t24 15q18 9 32 9q19 0 36 -14q35 -26 75 -26q34 0 70 18z" />
    <glyph glyph-name="uni0307" unicode="&#x307;" horiz-adv-x="0" 
d="M-40.5 774q-14.5 -12 -18.5 -29q-3 -17 6.5 -29.5t26.5 -12.5t32 12.5t18 29.5q1 3 1 9q0 14 -9.5 23t-24.5 9q-17 0 -31.5 -12z" />
    <glyph glyph-name="uni0308" unicode="&#x308;" horiz-adv-x="0" 
d="M-219 774q-14 -12 -19 -29q-3 -17 7 -29.5t27 -12.5t31.5 12.5t18.5 29.5q1 3 1 8q0 14 -10 23.5t-25 9.5q-17 0 -31 -12zM-29.5 774q-14.5 -12 -18.5 -29q-1 -3 -1 -9q0 -14 9.5 -23.5t24.5 -9.5q17 0 32 12.5t18 29.5q1 3 1 8q0 14 -10 23.5t-24 9.5q-17 0 -31.5 -12z
" />
    <glyph glyph-name="uni030A" unicode="&#x30a;" horiz-adv-x="0" 
d="M-7.5 732q35.5 29 43.5 70q2 12 2 18q0 35 -23 58t-59 23q-40 0 -75 -29t-43 -70q-2 -12 -2 -18q0 -35 22.5 -58t58.5 -23q40 0 75.5 29zM-41 820q6 -8 4 -18q-2 -11 -11 -18.5t-20 -7.5t-17 7.5t-4 18.5q2 10 11.5 18t19.5 8q11 0 17 -8z" />
    <glyph glyph-name="uni0327" unicode="&#x327;" horiz-adv-x="0" 
d="M-312 -166q19 13 31.5 31t16.5 37q1 5 1 15q0 32 -22 54q-13 12 -34 20l2 9h-73l-15 -77h37q14 0 23.5 -6.5t7.5 -14.5q-2 -7 -13.5 -14t-25.5 -7q-15 0 -25 7t-8 14h-73q-1 -5 -1 -15q0 -32 23 -53q25 -25 69 -25t79 25z" />
    <glyph glyph-name="uni0335" unicode="&#x335;" horiz-adv-x="0" 
d="M-301 285l17 83h-368l-17 -83h368z" />
    <glyph glyph-name="uni0338" unicode="&#x338;" horiz-adv-x="0" 
d="M-547 0l511 651h96l-509 -651h-98z" />
    <glyph glyph-name="Wgrave" unicode="&#x1e80;" horiz-adv-x="885" 
d="M545 225l223 426h87l-347 -667l-94 427l-261 -427l-90 667h88l58 -427l247 404zM430 703h65l-64 105h-94z" />
    <glyph glyph-name="wgrave" unicode="&#x1e81;" horiz-adv-x="885" 
d="M545 225l223 426h87l-347 -667l-94 427l-261 -427l-90 667h88l58 -427l247 404zM430 703h65l-64 105h-94z" />
    <glyph glyph-name="Wacute" unicode="&#x1e82;" horiz-adv-x="885" 
d="M545 225l223 426h87l-347 -667l-94 427l-261 -427l-90 667h88l58 -427l247 404zM424 703h66l134 104h-95z" />
    <glyph glyph-name="wacute" unicode="&#x1e83;" horiz-adv-x="885" 
d="M545 225l223 426h87l-347 -667l-94 427l-261 -427l-90 667h88l58 -427l247 404zM424 703h66l134 104h-95z" />
    <glyph glyph-name="Wdieresis" unicode="&#x1e84;" horiz-adv-x="885" 
d="M545 225l223 426h87l-347 -667l-94 427l-261 -427l-90 667h88l58 -427l247 404zM349 774q-14 -12 -19 -29q-3 -17 7 -29.5t27 -12.5t31.5 12.5t18.5 29.5q1 3 1 8q0 14 -10 23.5t-25 9.5q-17 0 -31 -12zM538.5 774q-14.5 -12 -18.5 -29q-1 -3 -1 -9q0 -14 9.5 -23.5
t24.5 -9.5q17 0 32 12.5t18 29.5q1 3 1 8q0 14 -10 23.5t-24 9.5q-17 0 -31.5 -12z" />
    <glyph glyph-name="wdieresis" unicode="&#x1e85;" horiz-adv-x="885" 
d="M545 225l223 426h87l-347 -667l-94 427l-261 -427l-90 667h88l58 -427l247 404zM349 774q-14 -12 -19 -29q-3 -17 7 -29.5t27 -12.5t31.5 12.5t18.5 29.5q1 3 1 8q0 14 -10 23.5t-25 9.5q-17 0 -31 -12zM538.5 774q-14.5 -12 -18.5 -29q-1 -3 -1 -9q0 -14 9.5 -23.5
t24.5 -9.5q17 0 32 12.5t18 29.5q1 3 1 8q0 14 -10 23.5t-24 9.5q-17 0 -31.5 -12z" />
    <glyph glyph-name="Ygrave" unicode="&#x1ef2;" horiz-adv-x="718" 
d="M310 311l280 340h100l-355 -428l-44 -223h-83l44 223l-191 428h99zM351 703h65l-64 105h-94z" />
    <glyph glyph-name="ygrave" unicode="&#x1ef3;" horiz-adv-x="718" 
d="M310 311l280 340h100l-355 -428l-44 -223h-83l44 223l-191 428h99zM351 703h65l-64 105h-94z" />
    <glyph glyph-name="endash" unicode="&#x2013;" horiz-adv-x="493" 
d="M375 285l17 83h-368l-17 -83h368z" />
    <glyph glyph-name="quoteleft" unicode="&#x2018;" horiz-adv-x="244" 
d="M67 536h49l83 115h-69z" />
    <glyph glyph-name="quoteright" unicode="&#x2019;" horiz-adv-x="244" 
d="M67 536h49l83 115h-69z" />
    <glyph glyph-name="quotesinglbase" unicode="&#x201a;" horiz-adv-x="239" 
d="M-64 -58h49l83 115h-69z" />
    <glyph glyph-name="quotedblleft" unicode="&#x201c;" horiz-adv-x="402" 
d="M209 536h49l83 115h-70zM72 536h49l82 115h-69z" />
    <glyph glyph-name="quotedblright" unicode="&#x201d;" horiz-adv-x="402" 
d="M209 536h49l83 115h-70zM72 536h49l82 115h-69z" />
    <glyph glyph-name="quotedblbase" unicode="&#x201e;" horiz-adv-x="239" 
d="M-64 -58h49l83 115h-69zM-64 -58h49l83 115h-69z" />
    <glyph glyph-name="ellipsis" unicode="&#x2026;" horiz-adv-x="562" 
d="M-22.5 12.5q9.5 -12.5 26.5 -12.5t32 12.5t18 29.5t-7 29t-26 12q-17 0 -32 -12t-18 -29t6.5 -29.5zM144 12.5q10 -12.5 27 -12.5t31.5 12.5t17.5 29.5q1 3 1 8q0 14 -9.5 23.5t-24.5 9.5q-17 0 -32 -12t-18 -29t7 -29.5zM310.5 12.5q9.5 -12.5 26.5 -12.5t32 12.5
t18 29.5q3 16 -7 28.5t-26 12.5q-17 0 -32 -12t-18 -29t6.5 -29.5z" />
    <glyph glyph-name="guilsinglleft" unicode="&#x2039;" horiz-adv-x="484" 
d="M336 183l-20 -103l-290 246l386 244l-21 -103l-224 -141z" />
    <glyph glyph-name="guilsinglright" unicode="&#x203a;" horiz-adv-x="485" 
d="M54 468l20 103l291 -245l-387 -245l20 103l225 142z" />
    <glyph glyph-name="fraction" unicode="&#x2044;" horiz-adv-x="605" 
d="M-48 0l511 651h97l-510 -651h-98z" />
    <glyph glyph-name="Euro" unicode="&#x20ac;" horiz-adv-x="632" 
d="M324.5 537q-65.5 -37 -109.5 -98h211l-15 -83h-236q-2 -5 -4.5 -12.5t-4.5 -17.5q-4 -26 -4 -38h235l-16 -83h-207q21 -58 71 -93t118 -35h89l-15 -83h-90q-68 0 -124.5 26.5t-93 74.5t-48.5 110h-105l17 83h85q1 11 5 38q4 20 7 30h-84l16 83h103q54 97 150 157.5
t201 60.5h90l-17 -83h-89q-70 0 -135.5 -37z" />
    <glyph glyph-name="trademark" unicode="&#x2122;" horiz-adv-x="624" 
 />
    <glyph glyph-name="minus" unicode="&#x2212;" horiz-adv-x="493" 
d="M375 285l17 83h-368l-17 -83h368z" />
    <glyph glyph-name="A.001" horiz-adv-x="690" 
d="M369 658l163 -658h-91l-112 456l-300 -456h-92z" />
    <glyph glyph-name="a.001" horiz-adv-x="690" 
d="M369 658l163 -658h-91l-112 456l-300 -456h-92z" />
    </font>
</defs>
</svg>
