<?xml version="1.0" standalone="no"?>
<!DOCTYPE svg PUBLIC "-//W3C//DTD SVG 1.1//EN" "http://www.w3.org/Graphics/SVG/1.1/DTD/svg11.dtd" >
<svg xmlns="http://www.w3.org/2000/svg" xmlns:xlink="http://www.w3.org/1999/xlink" version="1.1">
<metadata>
Created by FontForge 20170731 at Mon Nov 27 16:48:46 2017
 By Aleksey,,,
Ellen Luff
</metadata>
<defs>
<font id="Kiona-Light" horiz-adv-x="700" >
  <font-face 
    font-family="Kiona Light"
    font-weight="300"
    font-stretch="normal"
    units-per-em="1000"
    panose-1="0 0 4 0 0 0 0 0 0 0"
    ascent="800"
    descent="-200"
    x-height="650"
    cap-height="650"
    bbox="-693 -200 1056 895"
    underline-thickness="50"
    underline-position="-150"
    unicode-range="U+0020-2212"
  />
<missing-glyph horiz-adv-x="450" 
d="M369 700v-900h-285v900h285zM300 86h-150v-102h150v102zM270 57v-43h-90v43h90zM300 242h-90v-50h30v20h30v-42h-90v72h-30v-102h150v102zM300 352h-30v-60h-120v-30h150v90zM300 406h-150v-30h60v-33h-60v-30h90v63h60v30zM210 493v-32h-30v32h30zM240 524h-90v-94h150
v31h-60v63zM300 640h-149v-30h59v-33h-60v-30h150v30h-60v33h60v30zM300 -36h-150v-30h63l-63 -42v-30h150v30h-92l63 42h29v30z" />
    <glyph glyph-name=".notdef" horiz-adv-x="450" 
d="M369 700v-900h-285v900h285zM300 86h-150v-102h150v102zM270 57v-43h-90v43h90zM300 242h-90v-50h30v20h30v-42h-90v72h-30v-102h150v102zM300 352h-30v-60h-120v-30h150v90zM300 406h-150v-30h60v-33h-60v-30h90v63h60v30zM210 493v-32h-30v32h30zM240 524h-90v-94h150
v31h-60v63zM300 640h-149v-30h59v-33h-60v-30h150v30h-60v33h60v30zM300 -36h-150v-30h63l-63 -42v-30h150v30h-92l63 42h29v30z" />
    <glyph glyph-name=".null" horiz-adv-x="0" 
 />
    <glyph glyph-name="nonmarkingreturn" horiz-adv-x="333" 
 />
    <glyph glyph-name="space" unicode=" " horiz-adv-x="347" 
 />
    <glyph glyph-name="exclam" unicode="!" horiz-adv-x="240" 
d="M131 650v-539h-21v539h21zM104.5 37.5q-6.5 -6.5 -6.5 -15.5t7 -15.5t15 -6.5q10 0 16 6.5t6 15.5q0 10 -6 16t-16 6q-9 0 -15.5 -6.5z" />
    <glyph glyph-name="quotedbl" unicode="&#x22;" horiz-adv-x="338" 
d="M177 565h31l44 85h-45zM87 565h30l45 85h-46z" />
    <glyph glyph-name="numbersign" unicode="#" horiz-adv-x="826" 
d="M765 470h-162l-45 -290h162l-4 -19h-162l-25 -161h-21l26 161h-294l-24 -161h-21l24 161h-161l3 19h162l45 290h-162l3 21h162l25 159h20l-24 -159h292l26 159h21l-26 -159h163zM537 180l45 290h-293l-45 -290h293z" />
    <glyph glyph-name="dollar" unicode="$" horiz-adv-x="619" 
d="M198 613.5q-54 -21.5 -73 -83.5q-6 -19 -6 -39q0 -45 32 -81t90 -55l142 -42q81 -25 116 -80q22 -35 22 -74q0 -20 -8 -46q-19 -63 -78 -93q-50 -27 -116 -27h-4v-109h-20v109q-123 9 -214 94l14 15q92 -88 224 -88q48 0 101.5 21t72.5 84q6 20 6 39q0 45 -32 81t-89 54
l-142 42q-80 24 -116 81q-22 36 -22 75q0 24 7 45q21 64 79 93q46 25 111 27v111h20v-112q125 -3 223 -93l-14 -15q-96 88 -224 88q-48 0 -102 -21.5z" />
    <glyph glyph-name="percent" unicode="%" horiz-adv-x="680" 
d="M565 41q34 34 34 83q0 48 -34 82.5t-82 34.5t-82 -34.5t-34 -82.5q0 -49 34 -83t82 -34t82 34zM551 192.5q28 -28.5 28 -68.5t-28 -68.5t-68 -28.5q-39 0 -67 28.5t-28 68.5t28 68.5t67 28.5q40 0 68 -28.5zM280 446.5q34 34.5 34 83.5t-34 83t-82 34q-49 0 -83 -34
t-34 -83t34 -83.5t83 -34.5q48 0 82 34.5zM265.5 598q27.5 -28 27.5 -68q0 -41 -27.5 -69t-67.5 -28t-68 28t-28 69q0 40 28 68t68 28t67.5 -28zM136 0l383 650h24l-384 -650h-23z" />
    <glyph glyph-name="ampersand" unicode="&#x26;" horiz-adv-x="728" 
d="M635 201l-52 -42l-14 14l51 43zM415.5 182q124.5 -126 179.5 -182h-29l-81 80l-4 -4t-3 -2q-46 -36 -86 -58.5t-82 -22.5q-57 0 -104 22.5t-74.5 61t-27.5 84.5q0 61 35.5 98t103.5 68l-33 33q-24 23 -43.5 58.5t-19.5 80.5q0 66 48 112q23 22 53.5 33.5t63.5 11.5
q67 0 117 -45q48 -46 48 -112q0 -35 -26 -70t-72 -62l-14 15q43 25 67 56t24 61q0 28 -11 53t-32 44q-19 19 -45.5 29t-55.5 10q-59 0 -103 -39q-20 -19 -31 -44t-11 -53q0 -65 57 -125q67 -66 191.5 -192zM471 94l-213 217q-67 -30 -100 -62.5t-33 -87.5q0 -40 24.5 -74
t67 -53.5t93.5 -19.5q38 0 74.5 20.5t80.5 55.5l3 1z" />
    <glyph glyph-name="quotesingle" unicode="'" horiz-adv-x="225" 
d="M81 565h31l44 85h-46z" />
    <glyph glyph-name="parenleft" unicode="(" horiz-adv-x="341" 
d="M260 16v-21q-64 9 -117 57q-29 27 -45.5 60.5t-16.5 67.5v289q0 34 16 67.5t46 61.5q51 46 117 57v-21q-60 -11 -103 -51q-27 -24 -41 -54t-14 -60v-289q0 -30 14 -59.5t41 -53.5q45 -42 103 -51z" />
    <glyph glyph-name="parenright" unicode=")" horiz-adv-x="340" 
d="M81 16v-21q31 4 61 19t54 38q30 27 46.5 60.5t16.5 67.5v289q0 35 -16 68t-47 61q-24 22 -54 37t-61 20v-21q60 -11 101 -51q27 -24 41.5 -54t14.5 -60v-289q0 -30 -14.5 -59.5t-41.5 -53.5q-43 -42 -101 -51z" />
    <glyph glyph-name="asterisk" unicode="*" horiz-adv-x="508" 
d="M136 289l118 163l119 -163l16 12l-118 163l191 63l-6 19l-192 -62v201h-19l-1 -201l-191 62l-7 -19l192 -63l-118 -163z" />
    <glyph glyph-name="plus" unicode="+" horiz-adv-x="571" 
d="M490 337v-21h-194v-194h-21v194h-194v21h194v194h21v-194h194z" />
    <glyph glyph-name="comma" unicode="," horiz-adv-x="219" 
d="M64 -43h31l44 86h-47z" />
    <glyph glyph-name="hyphen" unicode="-" horiz-adv-x="571" 
d="M490 316v20h-409v-20h409z" />
    <glyph glyph-name="period" unicode="." horiz-adv-x="223" 
d="M90 9q9 -9 22 -9q12 0 21 9t9 22q0 12 -9 21t-21 9q-13 0 -22 -9t-9 -21q0 -13 9 -22z" />
    <glyph glyph-name="slash" unicode="/" horiz-adv-x="546" 
d="M69 0l384 650h24l-383 -650h-25z" />
    <glyph glyph-name="zero" unicode="0" horiz-adv-x="589" 
d="M377.5 8.5q37.5 15.5 68.5 43.5q29 27 45.5 60.5t16.5 67.5v136v9v4v140q0 34 -16 67.5t-46 61.5q-29 28 -67.5 43t-78.5 15q-39 0 -77 -15t-68 -43t-46.5 -61.5t-16.5 -67.5v-138v-6v-6v-139q0 -33 16.5 -67t46.5 -61q30 -28 68 -43.5t77 -15.5q40 0 77.5 15.5z
M370.5 622q34.5 -14 61.5 -39q27 -24 41 -54t14 -60v-140v-4v-9v-136q0 -30 -14 -59.5t-41 -53.5q-27 -25 -61.5 -39t-70.5 -14q-35 0 -69 14t-62 39q-26 24 -41 54t-15 59v139v6v6v138q0 30 15 60t41 54q28 25 62 39t69 14q36 0 70.5 -14z" />
    <glyph glyph-name="one" unicode="1" horiz-adv-x="365" 
d="M46 444l223 213v-657h-21v609l-202 -193v28z" />
    <glyph glyph-name="two" unicode="2" horiz-adv-x="528" 
d="M239.5 163q-85.5 -116 -119.5 -163h-25q34 47 136 186.5t146 195.5q40 54 40 112q0 7 -2 23q-9 60 -60 95q-40 28 -86 28q-40 0 -79.5 -21t-73.5 -62l-31 -37l-16 12q13 17 21 26.5t10 12.5q38 44 81.5 67t86.5 23q51 0 98 -32q29 -19 47 -47t22 -61q3 -15 3 -29
q0 -65 -45 -122q-68 -91 -153.5 -207zM459 21v-21h-349l15 21h334z" />
    <glyph glyph-name="three" unicode="3" horiz-adv-x="560" 
d="M467 261.5q24 -42.5 24 -85.5q0 -50 -28.5 -92t-77 -66.5t-105.5 -24.5q-54 0 -100.5 22t-75.5 60t-34 84l20 14q0 -43 26 -79.5t69.5 -58t94.5 -21.5q52 0 95.5 22t69 59t25.5 81q0 39 -21.5 77t-62.5 70l-41 33l27 27q29 31 41 56.5t12 58.5q0 37 -19.5 68.5t-53 50
t-72.5 18.5t-72.5 -18.5t-53 -50t-19.5 -68.5h-21q0 43 22.5 79.5t60.5 57.5t83 21t83 -21t60.5 -57.5t22.5 -79.5q0 -40 -14.5 -68.5t-44.5 -61.5l-12 -11l23 -17q45 -36 69 -78.5zM90 173l-20 -14q-1 5 -1 17h21v-3z" />
    <glyph glyph-name="four" unicode="4" horiz-adv-x="644" 
d="M604 181v-20h-179v-161h-20v161h-347l336 489h31v-481h-20l-1 460l-307 -448h507z" />
    <glyph glyph-name="five" unicode="5" horiz-adv-x="566" 
d="M400 18.5q49 25.5 77 69.5t28 96q0 35 -15.5 68t-44.5 59q-60 53 -152 53h-164l20 265h365v21h-385l-22 -307h186q40 0 75.5 -12t62.5 -35q25 -23 39 -52t14 -60q0 -46 -25 -85t-69 -62t-97 -23q-80 0 -137 45q-26 21 -40 46.5t-14 52.5h-21q0 -31 16.5 -61.5t45.5 -53.5
q30 -25 69 -37.5t81 -12.5q58 0 107 25.5z" />
    <glyph glyph-name="six" unicode="6" horiz-adv-x="541" 
d="M318 655q-114 -215 -172 -327q59 42 136 42q57 0 106 -25t77.5 -67.5t28.5 -92.5t-28.5 -92.5t-77.5 -67.5t-106 -25q-58 0 -107 25t-77.5 67.5t-28.5 92.5q1 30 10.5 59.5t33 75t86.5 160.5q29 51 96 175h23zM186.5 327q-44.5 -22 -70.5 -59.5t-26 -82.5q0 -44 26 -82
t70 -60t96 -22t96 22t70 60t26 82q0 45 -26 82.5t-70 59.5t-96 22q-51 0 -95.5 -22z" />
    <glyph glyph-name="seven" unicode="7" horiz-adv-x="583" 
d="M526 650l-341 -650h-23l330 631h-428v19h462z" />
    <glyph glyph-name="eight" unicode="8" horiz-adv-x="549" 
d="M449.5 286q41.5 -48 41.5 -109q0 -50 -28.5 -92.5t-77 -67t-105.5 -24.5t-105.5 24.5t-77 67t-28.5 92.5q0 60 41.5 108.5t105.5 66.5q-46 17 -74 57t-28 89q0 43 22.5 79.5t60.5 57.5t83 21t83 -21t60.5 -57.5t22.5 -79.5q0 -49 -28.5 -88.5t-74.5 -57.5
q65 -18 106.5 -66zM154.5 429.5q19.5 -31.5 53 -50.5t72.5 -19t72.5 19t53 50.5t19.5 68.5t-19.5 69t-53 50.5t-72.5 18.5t-72.5 -18.5t-53 -50.5t-19.5 -69t19.5 -68.5zM375.5 36q43.5 22 69 59.5t25.5 81.5t-25.5 81.5t-69 59.5t-95.5 22q-51 0 -95 -22t-69.5 -59.5
t-25.5 -81.5t25.5 -81.5t69.5 -59.5t95 -22q52 0 95.5 22z" />
    <glyph glyph-name="nine" unicode="9" horiz-adv-x="564" 
d="M244 0q124 237 174 331q-61 -42 -136 -42q-58 0 -106.5 25t-77.5 67.5t-29 93.5q0 50 29 92.5t78 67.5t106 25q58 0 106.5 -25t77 -67.5t28.5 -92.5q0 -26 -9.5 -54t-35.5 -79t-97 -184l-85 -158h-23zM375 332q44 22 71 60t28 83q0 44 -26 82t-70 60t-96 22t-96 -22
t-70 -60t-26 -82q0 -45 26 -83t70 -60t96 -22q49 0 93 22z" />
    <glyph glyph-name="colon" unicode=":" horiz-adv-x="223" 
d="M90 78q9 -9 21 -9q13 0 22 9t9 22t-9 22t-22 9q-12 0 -21 -9t-9 -22t9 -22zM90 267q9 -9 21 -9q13 0 22 9t9 22q0 12 -9 21t-22 9q-12 0 -21 -9t-9 -21q0 -13 9 -22z" />
    <glyph glyph-name="semicolon" unicode=";" horiz-adv-x="243" 
d="M109.5 179q9.5 -9 22.5 -9q12 0 21 9t9 22q0 12 -9 21.5t-21 9.5q-13 0 -22.5 -9.5t-9.5 -21.5q0 -13 9.5 -22zM81 -42h31l44 85h-45z" />
    <glyph glyph-name="less" unicode="&#x3c;" horiz-adv-x="476" 
d="M116 325l279 -204v-25l-314 229l314 226v-25z" />
    <glyph glyph-name="equal" unicode="=" horiz-adv-x="571" 
d="M490 192v21h-409v-21h409zM490 440v20h-409v-20h409z" />
    <glyph glyph-name="greater" unicode="&#x3e;" horiz-adv-x="477" 
d="M81 553l315 -228l-315 -228v25l279 203l-279 203v25z" />
    <glyph glyph-name="question" unicode="?" horiz-adv-x="584" 
d="M291 152q0 33 8 53.5t20 33.5t37 34l26 20q5 4 29 24.5t43 45.5q38 50 38 111q0 36 -16 69.5t-46 60.5q-30 26 -68.5 39.5t-80.5 13.5q-88 0 -149 -53q-31 -26 -47 -59.5t-16 -70.5h21q0 44 26 81.5t69.5 59t95.5 21.5t95.5 -21.5t69 -59t25.5 -81.5q0 -54 -34 -100
q-21 -27 -67 -64q-24 -19 -27 -21q-25 -20 -39.5 -35.5t-24 -40t-9.5 -61.5v-48h21v48zM265 31q-6 -6 -6 -16q0 -9 6 -15.5t16 -6.5q8 0 15 6.5t7 15.5t-6.5 15.5t-15.5 6.5q-10 0 -16 -6z" />
    <glyph glyph-name="at" unicode="@" horiz-adv-x="862" 
d="M781 472.5q29 -69.5 29 -146.5q0 -33 -12.5 -62.5t-35.5 -50.5q-20 -20 -47.5 -31t-54.5 -11q-50 0 -84.5 28.5t-48.5 73.5q-15 -26 -40.5 -41t-54.5 -15q-45 0 -77.5 32.5t-32.5 77.5t32.5 77.5t77.5 32.5q25 0 48 -12t39 -32v38h19l1 -121q5 -48 37.5 -83t83.5 -35
q25 0 47.5 9t40.5 27q20 19 31 44.5t11 53.5q0 73 -27.5 139t-79.5 116t-116.5 76.5t-135.5 26.5q-97 0 -179.5 -48.5t-130.5 -130.5t-48 -179t48 -179.5t130.5 -130.5t179.5 -48q62 0 118 19.5t101 55.5h33q-51 -46 -115.5 -71t-136.5 -25q-102 0 -189.5 51t-138.5 138
t-51 190t51 190t138.5 138t189.5 51q75 0 144 -28t123 -81q54 -54 83 -123.5zM489 258.5q25 20.5 30 52.5v31q-6 32 -30.5 53t-56.5 21q-37 0 -63 -26.5t-26 -62.5q0 -37 26 -63t63 -26q32 0 57 20.5z" />
    <glyph glyph-name="A" unicode="A" 
d="M358 658l290 -658h-22l-84 191h-378l-89 -191h-23zM173 211h359l-175 398z" />
    <glyph glyph-name="B" unicode="B" horiz-adv-x="601" 
d="M511.5 270q31.5 -41 31.5 -93q0 -44 -26 -85t-74.5 -66.5t-112.5 -25.5h-235l1 650h180q88 0 142 -48q23 -22 36.5 -51t13.5 -60q0 -53 -35 -94q-23 -26 -56 -44l-10 -3q42 -7 68 -19q45 -20 76.5 -61zM116 356h158q29 0 49.5 3.5t40.5 11.5q11 4 30 17t36 39.5t17 63.5
q0 36 -20 68t-59 52t-92 20h-160v-275zM431.5 43.5q43.5 22.5 67 58.5t23.5 75q0 45 -28 81.5t-67 53.5q-55 23 -131 23h-180v-314h214q58 0 101.5 22.5z" />
    <glyph glyph-name="C" unicode="C" horiz-adv-x="690" 
d="M524 25.5q67 32.5 114 91.5l-17 12q-45 -54 -107.5 -84.5t-132.5 -30.5q-84 0 -154.5 42t-112 113.5t-41.5 156.5t41.5 156.5t112 114t154.5 42.5q65 0 125 -27t104 -76l15 14q-47 52 -110.5 80t-133.5 28q-89 0 -164.5 -44.5t-120 -121t-44.5 -166.5t44.5 -166.5
t120 -121.5t164.5 -45q76 0 143 32.5z" />
    <glyph glyph-name="D" unicode="D" horiz-adv-x="649" 
d="M404.5 25.5q58.5 25.5 103.5 73.5q40 45 61.5 103.5t21.5 123.5q0 64 -21.5 123t-61.5 103q-89 98 -231 98h-182v-650h182q69 0 127.5 25.5zM116 629h161q66 0 120.5 -23t94.5 -68q38 -41 58.5 -96t20.5 -116t-20.5 -116t-58.5 -97q-39 -45 -94 -68.5t-121 -23.5h-161
v608z" />
    <glyph glyph-name="E" unicode="E" horiz-adv-x="614" 
d="M521 0v22h-405v293h318v21h-318v293h405v21h-426v-650h426z" />
    <glyph glyph-name="F" unicode="F" horiz-adv-x="604" 
d="M116 0v314h318v22h-318v293h404v21h-425v-650h21z" />
    <glyph glyph-name="G" unicode="G" horiz-adv-x="716" 
d="M611 311h-256v-21h235v-269h-210q-83 0 -153.5 41.5t-111.5 112t-41 154.5t41 155t111.5 112.5t153.5 41.5q64 0 123 -26t102 -74l15 14q-46 51 -108.5 78.5t-131.5 27.5q-89 0 -164 -44t-119 -120t-44 -165t44 -164.5t119 -120t164 -44.5h231v311z" />
    <glyph glyph-name="H" unicode="H" horiz-adv-x="660" 
d="M543 0h21v650h-21v-314h-426v314h-21v-650h21v315h426v-315z" />
    <glyph glyph-name="I" unicode="I" horiz-adv-x="235" 
d="M128 0v650h-21v-650h21z" />
    <glyph glyph-name="J" unicode="J" horiz-adv-x="572" 
d="M333.5 14q44.5 21 77.5 60q35 42 53.5 101.5t18.5 131.5v343h-21v-343q0 -139 -67 -220q-29 -36 -69.5 -54.5t-88.5 -18.5q-60 0 -109.5 33t-80.5 94l-18 -9q34 -66 88 -102q54 -37 120 -37q52 0 96.5 21z" />
    <glyph glyph-name="K" unicode="K" horiz-adv-x="608" 
d="M551 0h-27l-228 283l-201 -295v662h21v-595l404 595h24l-237 -350z" />
    <glyph glyph-name="L" unicode="L" horiz-adv-x="591" 
d="M508 0v21h-394v629h-19v-650h413z" />
    <glyph glyph-name="M" unicode="M" horiz-adv-x="864" 
d="M768 0v658l-335 -530l-337 530v-658h21v587l316 -497l314 497v-587h21z" />
    <glyph glyph-name="N" unicode="N" horiz-adv-x="680" 
d="M586 -12v662h-21v-597l-469 605v-658h21v594z" />
    <glyph glyph-name="O" unicode="O" horiz-adv-x="762" 
d="M545.5 38q75.5 45 120 121.5t44.5 166.5t-44.5 166.5t-120 121t-164.5 44.5t-164.5 -44.5t-120 -121t-44.5 -166.5t44.5 -166.5t120 -121.5t164.5 -45t164.5 45zM536.5 596q71.5 -42 113 -113.5t41.5 -156.5t-41.5 -156.5t-113 -113.5t-155.5 -42t-154.5 42t-112 113.5
t-41.5 156.5t41.5 156.5t112 113.5t154.5 42t155.5 -42z" />
    <glyph glyph-name="P" unicode="P" horiz-adv-x="594" 
d="M116 0v295h207q56 0 104 24t75.5 64.5t27.5 88.5q0 49 -27.5 89.5t-75 64.5t-104.5 24h-218h-10v-650h21zM116 629h207q51 0 93.5 -21t67.5 -57t25 -79q0 -42 -25 -78.5t-67.5 -57.5t-93.5 -21h-207v314z" />
    <glyph glyph-name="Q" unicode="Q" horiz-adv-x="768" 
d="M682.5 192q-27.5 -63 -76.5 -109l79 -83h-28l-66 69q-43 -36 -97 -56t-113 -20q-89 0 -164.5 45t-120 121.5t-44.5 166.5t44.5 166.5t120 121t164.5 44.5t164.5 -44.5t120 -121t44.5 -166.5q0 -71 -27.5 -134zM486.5 32.5q50.5 18.5 91.5 51.5l-215 231l15 14l215 -231
q46 45 72 103.5t26 124.5q0 85 -41.5 156.5t-113 113.5t-155.5 42t-155 -42t-112.5 -113.5t-41.5 -156.5t41.5 -156.5t112.5 -113.5t155 -42q55 0 105.5 18.5z" />
    <glyph glyph-name="R" unicode="R" horiz-adv-x="603" 
d="M507 0l-255 315h52q41 0 63 5t49 17q38 18 65.5 55t27.5 82q0 39 -23.5 75.5t-67 59t-100.5 22.5h-204l2 -631h-21v650h223q63 0 111 -25.5t74 -66t26 -84.5q0 -52 -29.5 -92t-74.5 -64q-28 -14 -55 -18t-74 -4l238 -296h-27z" />
    <glyph glyph-name="S" unicode="S" horiz-adv-x="616" 
d="M509 243.5q26 -38.5 26 -79.5q0 -47 -31 -86.5t-84 -62.5t-115 -23q-60 0 -111 21t-82.5 58t-35.5 81l20 12q0 -41 28.5 -76t76.5 -55t104 -20q57 0 105 20.5t76 55t28 75.5q0 35 -22 67t-61 54q-23 13 -60 20t-67 10q-6 1 -52 8.5t-75 20.5q-47 22 -74.5 61t-27.5 82
q0 47 31 86.5t84 63t115 23.5q59 0 110.5 -21.5t83.5 -58t36 -80.5l-21 -11q0 41 -28 75.5t-76 54.5t-105 20t-105 -20t-76 -55t-28 -77q0 -37 24 -71t66 -53q18 -8 41 -13t46.5 -8.5t32.5 -5.5q47 -7 78 -13t56 -19q43 -22 69 -60.5z" />
    <glyph glyph-name="T" unicode="T" horiz-adv-x="699" 
d="M642 650v-21h-283v-629h-21v629h-281v21h585z" />
    <glyph glyph-name="U" unicode="U" horiz-adv-x="678" 
d="M434 11.5q45 18.5 79 54.5q34 35 52 80.5t18 94.5v409h-19v-409q0 -46 -17 -87t-49 -73q-31 -33 -72 -50t-86 -17q-95 0 -160 67q-31 32 -47.5 73.5t-16.5 86.5v409h-21v-409q0 -49 18 -94.5t52 -80.5q34 -36 79.5 -54.5t95.5 -18.5q49 0 94 18.5z" />
    <glyph glyph-name="V" unicode="V" horiz-adv-x="691" 
d="M344 39l273 611h22l-295 -662l-295 662h23z" />
    <glyph glyph-name="W" unicode="W" horiz-adv-x="902" 
d="M643 53l185 597h22l-206 -662l-191 540l-193 -540l-208 662h22l187 -597l192 536z" />
    <glyph glyph-name="X" unicode="X" horiz-adv-x="618" 
d="M560 0h-25l-227 308l-226 -308h-24l239 326l-239 324h24l226 -308l228 308h24l-239 -324z" />
    <glyph glyph-name="Y" unicode="Y" horiz-adv-x="684" 
d="M342 269l268 381h24l-282 -403v-247h-21v247l-281 403h25z" />
    <glyph glyph-name="Z" unicode="Z" horiz-adv-x="628" 
d="M542 0v21h-375l327 629h-407v-21h374l-328 -629h409z" />
    <glyph glyph-name="bracketleft" unicode="[" horiz-adv-x="319" 
d="M238 0v21h-136v610h136v19h-157v-650h157z" />
    <glyph glyph-name="backslash" unicode="\" horiz-adv-x="546" 
d="M453 0l-384 650h25l383 -650h-24z" />
    <glyph glyph-name="bracketright" unicode="]" horiz-adv-x="319" 
d="M238 0v650h-157v-19h136v-610h-136v-21h157z" />
    <glyph glyph-name="asciicircum" unicode="^" horiz-adv-x="616" 
d="M96 432l211 212l213 -212l15 15l-228 226l-226 -226z" />
    <glyph glyph-name="underscore" unicode="_" horiz-adv-x="869" 
d="M799 0v21h-730v-21h730z" />
    <glyph glyph-name="a" unicode="a" 
d="M358 658l290 -658h-22l-84 191h-378l-89 -191h-23zM173 211h359l-175 398z" />
    <glyph glyph-name="b" unicode="b" horiz-adv-x="601" 
d="M511.5 270q31.5 -41 31.5 -93q0 -44 -26 -85t-74.5 -66.5t-112.5 -25.5h-235l1 650h180q88 0 142 -48q23 -22 36.5 -51t13.5 -60q0 -53 -35 -94q-23 -26 -56 -44l-10 -3q42 -7 68 -19q45 -20 76.5 -61zM116 356h158q29 0 49.5 3.5t40.5 11.5q11 4 30 17t36 39.5t17 63.5
q0 36 -20 68t-59 52t-92 20h-160v-275zM431.5 43.5q43.5 22.5 67 58.5t23.5 75q0 45 -28 81.5t-67 53.5q-55 23 -131 23h-180v-314h214q58 0 101.5 22.5z" />
    <glyph glyph-name="c" unicode="c" horiz-adv-x="690" 
d="M524 25.5q67 32.5 114 91.5l-17 12q-45 -54 -107.5 -84.5t-132.5 -30.5q-84 0 -154.5 42t-112 113.5t-41.5 156.5t41.5 156.5t112 114t154.5 42.5q65 0 125 -27t104 -76l15 14q-47 52 -110.5 80t-133.5 28q-89 0 -164.5 -44.5t-120 -121t-44.5 -166.5t44.5 -166.5
t120 -121.5t164.5 -45q76 0 143 32.5z" />
    <glyph glyph-name="d" unicode="d" horiz-adv-x="649" 
d="M404.5 25.5q58.5 25.5 103.5 73.5q40 45 61.5 103.5t21.5 123.5q0 64 -21.5 123t-61.5 103q-89 98 -231 98h-182v-650h182q69 0 127.5 25.5zM116 629h161q66 0 120.5 -23t94.5 -68q38 -41 58.5 -96t20.5 -116t-20.5 -116t-58.5 -97q-39 -45 -94 -68.5t-121 -23.5h-161
v608z" />
    <glyph glyph-name="e" unicode="e" horiz-adv-x="614" 
d="M521 0v22h-405v293h318v21h-318v293h405v21h-426v-650h426z" />
    <glyph glyph-name="f" unicode="f" horiz-adv-x="604" 
d="M116 0v314h318v22h-318v293h404v21h-425v-650h21z" />
    <glyph glyph-name="g" unicode="g" horiz-adv-x="716" 
d="M611 311h-256v-21h235v-269h-210q-83 0 -153.5 41.5t-111.5 112t-41 154.5t41 155t111.5 112.5t153.5 41.5q64 0 123 -26t102 -74l15 14q-46 51 -108.5 78.5t-131.5 27.5q-89 0 -164 -44t-119 -120t-44 -165t44 -164.5t119 -120t164 -44.5h231v311z" />
    <glyph glyph-name="h" unicode="h" horiz-adv-x="660" 
d="M543 0h21v650h-21v-314h-426v314h-21v-650h21v315h426v-315z" />
    <glyph glyph-name="i" unicode="i" horiz-adv-x="235" 
d="M128 0v650h-21v-650h21z" />
    <glyph glyph-name="j" unicode="j" horiz-adv-x="572" 
d="M333.5 14q44.5 21 77.5 60q35 42 53.5 101.5t18.5 131.5v343h-21v-343q0 -139 -67 -220q-29 -36 -69.5 -54.5t-88.5 -18.5q-60 0 -109.5 33t-80.5 94l-18 -9q34 -66 88 -102q54 -37 120 -37q52 0 96.5 21z" />
    <glyph glyph-name="k" unicode="k" horiz-adv-x="608" 
d="M551 0h-27l-228 283l-201 -295v662h21v-595l404 595h24l-237 -350z" />
    <glyph glyph-name="l" unicode="l" horiz-adv-x="591" 
d="M508 0v21h-394v629h-19v-650h413z" />
    <glyph glyph-name="m" unicode="m" horiz-adv-x="864" 
d="M768 0v658l-335 -530l-337 530v-658h21v587l316 -497l314 497v-587h21z" />
    <glyph glyph-name="n" unicode="n" horiz-adv-x="680" 
d="M586 -12v662h-21v-597l-469 605v-658h21v594z" />
    <glyph glyph-name="o" unicode="o" horiz-adv-x="762" 
d="M545.5 38q75.5 45 120 121.5t44.5 166.5t-44.5 166.5t-120 121t-164.5 44.5t-164.5 -44.5t-120 -121t-44.5 -166.5t44.5 -166.5t120 -121.5t164.5 -45t164.5 45zM536.5 596q71.5 -42 113 -113.5t41.5 -156.5t-41.5 -156.5t-113 -113.5t-155.5 -42t-154.5 42t-112 113.5
t-41.5 156.5t41.5 156.5t112 113.5t154.5 42t155.5 -42z" />
    <glyph glyph-name="p" unicode="p" horiz-adv-x="594" 
d="M116 0v295h207q56 0 104 24t75.5 64.5t27.5 88.5q0 49 -27.5 89.5t-75 64.5t-104.5 24h-218h-10v-650h21zM116 629h207q51 0 93.5 -21t67.5 -57t25 -79q0 -42 -25 -78.5t-67.5 -57.5t-93.5 -21h-207v314z" />
    <glyph glyph-name="q" unicode="q" horiz-adv-x="768" 
d="M682.5 192q-27.5 -63 -76.5 -109l79 -83h-28l-66 69q-43 -36 -97 -56t-113 -20q-89 0 -164.5 45t-120 121.5t-44.5 166.5t44.5 166.5t120 121t164.5 44.5t164.5 -44.5t120 -121t44.5 -166.5q0 -71 -27.5 -134zM486.5 32.5q50.5 18.5 91.5 51.5l-215 231l15 14l215 -231
q46 45 72 103.5t26 124.5q0 85 -41.5 156.5t-113 113.5t-155.5 42t-155 -42t-112.5 -113.5t-41.5 -156.5t41.5 -156.5t112.5 -113.5t155 -42q55 0 105.5 18.5z" />
    <glyph glyph-name="r" unicode="r" horiz-adv-x="603" 
d="M507 0l-255 315h52q41 0 63 5t49 17q38 18 65.5 55t27.5 82q0 39 -23.5 75.5t-67 59t-100.5 22.5h-204l2 -631h-21v650h223q63 0 111 -25.5t74 -66t26 -84.5q0 -52 -29.5 -92t-74.5 -64q-28 -14 -55 -18t-74 -4l238 -296h-27z" />
    <glyph glyph-name="s" unicode="s" horiz-adv-x="616" 
d="M509 243.5q26 -38.5 26 -79.5q0 -47 -31 -86.5t-84 -62.5t-115 -23q-60 0 -111 21t-82.5 58t-35.5 81l20 12q0 -41 28.5 -76t76.5 -55t104 -20q57 0 105 20.5t76 55t28 75.5q0 35 -22 67t-61 54q-23 13 -60 20t-67 10q-6 1 -52 8.5t-75 20.5q-47 22 -74.5 61t-27.5 82
q0 47 31 86.5t84 63t115 23.5q59 0 110.5 -21.5t83.5 -58t36 -80.5l-21 -11q0 41 -28 75.5t-76 54.5t-105 20t-105 -20t-76 -55t-28 -77q0 -37 24 -71t66 -53q18 -8 41 -13t46.5 -8.5t32.5 -5.5q47 -7 78 -13t56 -19q43 -22 69 -60.5z" />
    <glyph glyph-name="t" unicode="t" horiz-adv-x="699" 
d="M642 650v-21h-283v-629h-21v629h-281v21h585z" />
    <glyph glyph-name="u" unicode="u" horiz-adv-x="678" 
d="M434 11.5q45 18.5 79 54.5q34 35 52 80.5t18 94.5v409h-19v-409q0 -46 -17 -87t-49 -73q-31 -33 -72 -50t-86 -17q-95 0 -160 67q-31 32 -47.5 73.5t-16.5 86.5v409h-21v-409q0 -49 18 -94.5t52 -80.5q34 -36 79.5 -54.5t95.5 -18.5q49 0 94 18.5z" />
    <glyph glyph-name="v" unicode="v" horiz-adv-x="691" 
d="M344 39l273 611h22l-295 -662l-295 662h23z" />
    <glyph glyph-name="w" unicode="w" horiz-adv-x="902" 
d="M643 53l185 597h22l-206 -662l-191 540l-193 -540l-208 662h22l187 -597l192 536z" />
    <glyph glyph-name="x" unicode="x" horiz-adv-x="618" 
d="M560 0h-25l-227 308l-226 -308h-24l239 326l-239 324h24l226 -308l228 308h24l-239 -324z" />
    <glyph glyph-name="y" unicode="y" horiz-adv-x="684" 
d="M342 269l268 381h24l-282 -403v-247h-21v247l-281 403h25z" />
    <glyph glyph-name="z" unicode="z" horiz-adv-x="628" 
d="M542 0v21h-375l327 629h-407v-21h374l-328 -629h409z" />
    <glyph glyph-name="braceleft" unicode="{" horiz-adv-x="351" 
d="M179 70q35 -38 91 -54v-21q-65 17 -105.5 60.5t-40.5 98.5v117q0 6 -18 28t-25 30q7 8 25 30t18 27v116q0 54 41 98t105 60v-21q-57 -16 -91.5 -53.5t-34.5 -83.5v-116q0 -12 -9.5 -25.5t-24.5 -31.5q2 -2 12 -14.5t16 -24t6 -19.5v-117q0 -46 35 -84z" />
    <glyph glyph-name="bar" unicode="|" horiz-adv-x="229" 
d="M125 0v650h-21v-650h21z" />
    <glyph glyph-name="braceright" unicode="}" horiz-adv-x="350" 
d="M171.5 70q-34.5 -38 -90.5 -54v-21q64 17 104.5 61t40.5 98v117q0 6 18 28t25 30q-7 8 -25 30t-18 27v116q0 54 -40.5 98t-104.5 60v-21q56 -16 90.5 -53.5t34.5 -83.5v-116q0 -12 9.5 -25.5t24.5 -31.5q-2 -2 -12 -14.5t-16 -24t-6 -19.5v-117q0 -46 -34.5 -84z" />
    <glyph glyph-name="exclamdown" unicode="&#xa1;" horiz-adv-x="240" 
d="M110 0v539h21v-539h-21zM135.5 613q6.5 7 6.5 15q0 10 -6.5 16t-15.5 6q-10 0 -16 -6t-6 -16q0 -9 6.5 -15.5t15.5 -6.5t15.5 7z" />
    <glyph glyph-name="cent" unicode="&#xa2;" horiz-adv-x="690" 
d="M526.5 26.5q-64.5 -32.5 -137.5 -33.5v-107h-19v107q-87 3 -160 48.5t-115.5 120.5t-42.5 164q0 88 42.5 162.5t115.5 120t160 48.5v111h19v-111q67 -1 128.5 -29.5t107.5 -78.5l-16 -14q-44 48 -103.5 74.5t-124.5 26.5q-84 0 -154.5 -41.5t-112 -113t-41.5 -155.5
q0 -85 41.5 -156.5t112 -113.5t154.5 -42q71 0 133.5 30t106.5 85l17 -12q-47 -58 -111.5 -90.5z" />
    <glyph glyph-name="sterling" unicode="&#xa3;" horiz-adv-x="575" 
d="M482 21v-21h-388v23q58 12 99 51q26 24 40.5 53.5t14.5 59.5v133h-121v21h121v135q0 34 16 67t46 61t68 43.5t77 15.5h6v-21h-6q-35 0 -69.5 -14t-62.5 -39q-25 -24 -39.5 -54t-14.5 -59v-135h119v-21h-119v-133q0 -34 -16.5 -67.5t-45.5 -60.5q-29 -26 -57 -38h332z" />
    <glyph glyph-name="copyright" unicode="&#xa9;" horiz-adv-x="599" 
d="M400 383l-17 13q-15 -19 -36.5 -29.5t-46.5 -10.5q-44 0 -75 31.5t-31 76.5q0 44 31 76t75 32q22 0 43 -9t36 -26l16 13q-18 21 -43 32t-52 11q-34 0 -63.5 -17.5t-46.5 -47t-17 -64.5t17 -64.5t46.5 -47t63.5 -17.5q61 0 100 48zM415 265q53 31 84 84t31 116t-31 116
t-84 84t-116 31t-115.5 -31t-83.5 -84t-31 -116q0 -62 31 -115.5t84 -84.5t115 -31q63 0 116 31zM404.5 647.5q48.5 -28.5 76.5 -77t28 -105.5t-28 -105t-76.5 -76.5t-105.5 -28.5t-105 28.5t-76 76.5t-28 105t28 105.5t76 77t105 28.5t105.5 -28.5z" />
    <glyph glyph-name="guillemotleft" unicode="&#xab;" horiz-adv-x="627" 
d="M117 325l279 -204v-25l-315 229l315 226v-25zM267 325l279 -204v-25l-314 229l314 226v-25z" />
    <glyph glyph-name="degree" unicode="&#xb0;" horiz-adv-x="372" 
d="M268.5 491.5q34.5 34.5 34.5 82.5q0 32 -16 59t-43 43t-58 16q-49 0 -83 -34.5t-34 -83.5t34 -83t83 -34q48 0 82.5 34.5zM253.5 642.5q28.5 -28.5 28.5 -68.5t-28.5 -68t-67.5 -28q-40 0 -68 28t-28 68t28 68.5t68 28.5q39 0 67.5 -28.5z" />
    <glyph glyph-name="guillemotright" unicode="&#xbb;" horiz-adv-x="627" 
d="M232 553l314 -228l-314 -228v25l280 203l-280 203v25zM81 552l315 -227l-315 -228v25l279 203l-279 202v25z" />
    <glyph glyph-name="questiondown" unicode="&#xbf;" horiz-adv-x="583" 
d="M292 498q0 -32 -7.5 -53t-20.5 -35t-36 -32l-27 -22q-26 -21 -41.5 -35.5t-28.5 -32.5q-39 -51 -39 -111q0 -38 16 -71.5t47 -59.5q29 -26 67.5 -39.5t80.5 -13.5t80.5 13.5t68.5 39.5t46 60t16 71h-21q0 -44 -25.5 -81.5t-69 -59.5t-95.5 -22q-51 0 -95 22t-69.5 59.5
t-25.5 81.5q0 54 34 98q13 17 28 31.5t39 33.5q5 5 13.5 11t13.5 11q25 20 39 35.5t23.5 39.5t9.5 61v48h-21v-48zM319 619.5q7 6.5 7 15.5t-7 15.5t-16 6.5t-15.5 -6.5t-6.5 -15.5t6.5 -15.5t15.5 -6.5t16 6.5z" />
    <glyph glyph-name="Agrave" unicode="&#xc0;" 
d="M358 658l290 -658h-22l-84 191h-378l-89 -191h-23zM173 211h359l-175 398zM346 743h17l-71 93h-41z" />
    <glyph glyph-name="Aacute" unicode="&#xc1;" 
d="M358 658l290 -658h-22l-84 191h-378l-89 -191h-23zM173 211h359l-175 398zM340 743h18l95 94h-43z" />
    <glyph glyph-name="Acircumflex" unicode="&#xc2;" 
d="M358 658l290 -658h-22l-84 191h-378l-89 -191h-23zM173 211h359l-175 398zM442 743h-16l-74 72l-75 -72h-16l70 93h42z" />
    <glyph glyph-name="Atilde" unicode="&#xc3;" 
d="M358 658l290 -658h-22l-84 191h-378l-89 -191h-23zM173 211h359l-175 398zM232 757q10 19 38 27q5 2 16 2q27 0 54 -20q34 -24 66 -24q13 0 23 3q19 6 33 18.5t21.5 25t7.5 15.5l-18 8q-1 -1 -11.5 -20t-38.5 -27q-10 -2 -16 -2q-25 0 -54 20q-36 24 -67 24q-11 0 -22 -3
q-19 -6 -32.5 -19t-21 -25.5t-7.5 -14.5l18 -8q1 1 11 20z" />
    <glyph glyph-name="Adieresis" unicode="&#xc4;" 
d="M358 658l290 -658h-22l-84 191h-378l-89 -191h-23zM173 211h359l-175 398zM241.5 780.5q-6.5 -6.5 -6.5 -15.5t6.5 -15.5t15.5 -6.5t15.5 6.5t6.5 15.5t-6.5 15.5t-15.5 6.5t-15.5 -6.5zM423 780.5q-7 -6.5 -7 -15.5t7 -15.5t15 -6.5q9 0 15.5 6.5t6.5 15.5t-6 15.5
t-16 6.5q-8 0 -15 -6.5z" />
    <glyph glyph-name="Aring" unicode="&#xc5;" 
d="M358 658l290 -658h-22l-84 191h-378l-89 -191h-23zM173 211h359l-175 398zM409 765q22 22 22 54q0 31 -22.5 53.5t-53.5 22.5t-53.5 -22.5t-22.5 -53.5q0 -32 22 -54t54 -22t54 22zM394.5 857.5q16.5 -16.5 16.5 -38.5q0 -23 -16.5 -39.5t-39.5 -16.5t-39 16.5t-16 39.5
t16 39t39 16t39.5 -16.5z" />
    <glyph glyph-name="AE" unicode="&#xc6;" horiz-adv-x="981" 
d="M887 650v-21h-404v-293h319v-21h-319v-294h404v-21h-425v225h-283l-104 -225h-23l301 650h534zM462 246v383h-95l-178 -383h273z" />
    <glyph glyph-name="Ccedilla" unicode="&#xc7;" horiz-adv-x="690" 
d="M524 25.5q67 32.5 114 91.5l-17 12q-45 -54 -107.5 -84.5t-132.5 -30.5q-84 0 -154.5 42t-112 113.5t-41.5 156.5t41.5 156.5t112 114t154.5 42.5q65 0 125 -27t104 -76l15 14q-47 52 -110.5 80t-133.5 28q-89 0 -164.5 -44.5t-120 -121t-44.5 -166.5t44.5 -166.5
t120 -121.5t164.5 -45q76 0 143 32.5zM431 -111q24 15 24 41q0 25 -24 42q-20 14 -42 15v23h-21v-43h11q22 0 38.5 -11t16.5 -26q0 -14 -16.5 -25.5t-38.5 -11.5t-39 11.5t-17 25.5h-20q0 -26 23 -41q22 -16 53 -16q32 0 52 16z" />
    <glyph glyph-name="Egrave" unicode="&#xc8;" horiz-adv-x="614" 
d="M521 0v22h-405v293h318v21h-318v293h405v21h-426v-650h426zM305 743h17l-71 93h-41z" />
    <glyph glyph-name="Eacute" unicode="&#xc9;" horiz-adv-x="614" 
d="M521 0v22h-405v293h318v21h-318v293h405v21h-426v-650h426zM303 743h18l95 94h-43z" />
    <glyph glyph-name="Ecircumflex" unicode="&#xca;" horiz-adv-x="614" 
d="M521 0v22h-405v293h318v21h-318v293h405v21h-426v-650h426zM411 743h-16l-74 72l-75 -72h-16l70 93h42z" />
    <glyph glyph-name="Edieresis" unicode="&#xcb;" horiz-adv-x="614" 
d="M521 0v22h-405v293h318v21h-318v293h405v21h-426v-650h426zM209.5 780.5q-6.5 -6.5 -6.5 -15.5t6.5 -15.5t15.5 -6.5t15.5 6.5t6.5 15.5t-6.5 15.5t-15.5 6.5t-15.5 -6.5zM391 780.5q-7 -6.5 -7 -15.5t7 -15.5t15 -6.5q9 0 15.5 6.5t6.5 15.5t-6 15.5t-16 6.5
q-8 0 -15 -6.5z" />
    <glyph glyph-name="Igrave" unicode="&#xcc;" horiz-adv-x="244" 
d="M137 0v650h-21v-650h21zM118 731h16l-69 95h-42z" />
    <glyph glyph-name="Iacute" unicode="&#xcd;" horiz-adv-x="244" 
d="M128 0v650h-21v-650h21zM109 731h16l96 94h-42z" />
    <glyph glyph-name="Icircumflex" unicode="&#xce;" horiz-adv-x="235" 
d="M127 0v650h-21v-650h21zM209 731h-17l-74 74l-75 -74h-17l71 94h41z" />
    <glyph glyph-name="Idieresis" unicode="&#xcf;" horiz-adv-x="234" 
d="M126 0v650h-21v-650h21zM10.5 769q-6.5 -6 -6.5 -16q0 -8 6.5 -15t15.5 -7t15.5 7t6.5 15q0 10 -6.5 16t-15.5 6t-15.5 -6zM191.5 769q-6.5 -6 -6.5 -16q0 -8 6.5 -15t15.5 -7t16 7t7 15q0 9 -7 15.5t-16 6.5t-15.5 -6z" />
    <glyph glyph-name="Eth" unicode="&#xd0;" horiz-adv-x="761" 
d="M681 449.5q22 -58.5 22 -123.5t-21.5 -123.5t-62.5 -103.5q-44 -48 -102.5 -73.5t-127.5 -25.5h-182v315h-112v21h112v314h182q70 0 128.5 -24.5t101.5 -73.5q40 -44 62 -102.5zM662.5 210q20.5 55 20.5 116t-20.5 116t-58.5 96q-40 45 -95 68t-120 23h-161v-293h276v-21
h-276v-294h161q66 0 120.5 23t94.5 69q38 42 58.5 97z" />
    <glyph glyph-name="Ntilde" unicode="&#xd1;" horiz-adv-x="680" 
d="M586 -12v662h-21v-597l-469 605v-658h21v594zM228 757q10 19 38 27q5 2 16 2q27 0 54 -20q34 -24 66 -24q13 0 23 3q19 6 33 18.5t21.5 25t7.5 15.5l-18 8q-1 -1 -11.5 -20t-38.5 -27q-10 -2 -16 -2q-25 0 -54 20q-36 24 -67 24q-11 0 -22 -3q-19 -6 -32.5 -19t-21 -25.5
t-7.5 -14.5l18 -8q1 1 11 20z" />
    <glyph glyph-name="Ograve" unicode="&#xd2;" horiz-adv-x="762" 
d="M545.5 38q75.5 45 120 121.5t44.5 166.5t-44.5 166.5t-120 121t-164.5 44.5t-164.5 -44.5t-120 -121t-44.5 -166.5t44.5 -166.5t120 -121.5t164.5 -45t164.5 45zM536.5 596q71.5 -42 113 -113.5t41.5 -156.5t-41.5 -156.5t-113 -113.5t-155.5 -42t-154.5 42t-112 113.5
t-41.5 156.5t41.5 156.5t112 113.5t154.5 42t155.5 -42zM360 743h17l-71 93h-41z" />
    <glyph glyph-name="Oacute" unicode="&#xd3;" horiz-adv-x="762" 
d="M545.5 38q75.5 45 120 121.5t44.5 166.5t-44.5 166.5t-120 121t-164.5 44.5t-164.5 -44.5t-120 -121t-44.5 -166.5t44.5 -166.5t120 -121.5t164.5 -45t164.5 45zM536.5 596q71.5 -42 113 -113.5t41.5 -156.5t-41.5 -156.5t-113 -113.5t-155.5 -42t-154.5 42t-112 113.5
t-41.5 156.5t41.5 156.5t112 113.5t154.5 42t155.5 -42zM360 743h18l95 94h-43z" />
    <glyph glyph-name="Ocircumflex" unicode="&#xd4;" horiz-adv-x="762" 
d="M545.5 38q75.5 45 120 121.5t44.5 166.5t-44.5 166.5t-120 121t-164.5 44.5t-164.5 -44.5t-120 -121t-44.5 -166.5t44.5 -166.5t120 -121.5t164.5 -45t164.5 45zM536.5 596q71.5 -42 113 -113.5t41.5 -156.5t-41.5 -156.5t-113 -113.5t-155.5 -42t-154.5 42t-112 113.5
t-41.5 156.5t41.5 156.5t112 113.5t154.5 42t155.5 -42zM468 743h-16l-74 72l-75 -72h-16l70 93h42z" />
    <glyph glyph-name="Otilde" unicode="&#xd5;" horiz-adv-x="762" 
d="M545.5 38q75.5 45 120 121.5t44.5 166.5t-44.5 166.5t-120 121t-164.5 44.5t-164.5 -44.5t-120 -121t-44.5 -166.5t44.5 -166.5t120 -121.5t164.5 -45t164.5 45zM536.5 596q71.5 -42 113 -113.5t41.5 -156.5t-41.5 -156.5t-113 -113.5t-155.5 -42t-154.5 42t-112 113.5
t-41.5 156.5t41.5 156.5t112 113.5t154.5 42t155.5 -42zM248 757q10 19 38 27q5 2 16 2q27 0 54 -20q34 -24 66 -24q13 0 23 3q19 6 33 18.5t21.5 25t7.5 15.5l-18 8q-1 -1 -11.5 -20t-38.5 -27q-10 -2 -16 -2q-25 0 -54 20q-36 24 -67 24q-11 0 -22 -3q-19 -6 -32.5 -19
t-21 -25.5t-7.5 -14.5l18 -8q1 1 11 20z" />
    <glyph glyph-name="Odieresis" unicode="&#xd6;" horiz-adv-x="762" 
d="M545.5 38q75.5 45 120 121.5t44.5 166.5t-44.5 166.5t-120 121t-164.5 44.5t-164.5 -44.5t-120 -121t-44.5 -166.5t44.5 -166.5t120 -121.5t164.5 -45t164.5 45zM536.5 596q71.5 -42 113 -113.5t41.5 -156.5t-41.5 -156.5t-113 -113.5t-155.5 -42t-154.5 42t-112 113.5
t-41.5 156.5t41.5 156.5t112 113.5t154.5 42t155.5 -42zM261.5 780.5q-6.5 -6.5 -6.5 -15.5t6.5 -15.5t15.5 -6.5t15.5 6.5t6.5 15.5t-6.5 15.5t-15.5 6.5t-15.5 -6.5zM443 780.5q-7 -6.5 -7 -15.5t7 -15.5t15 -6.5q9 0 15.5 6.5t6.5 15.5t-6 15.5t-16 6.5q-8 0 -15 -6.5z
" />
    <glyph glyph-name="multiply" unicode="&#xd7;" horiz-adv-x="442" 
d="M373 462l-137 -137l137 -138l-15 -14l-137 137l-138 -138l-14 15l138 138l-138 137l14 14l138 -138l137 138z" />
    <glyph glyph-name="Oslash" unicode="&#xd8;" horiz-adv-x="763" 
d="M670 489.5q41 -74.5 41 -160.5q0 -90 -44.5 -166t-120.5 -121t-165 -45q-83 0 -158 40l-22 -37h-24l29 49q-71 44 -112.5 118.5t-41.5 161.5q0 90 44.5 166.5t120 121.5t164.5 45q85 0 161 -43l18 32h24l-25 -42q70 -45 111 -119.5zM111.5 177.5q38.5 -69.5 104.5 -111.5
l315 536q-73 39 -150 39q-84 0 -154.5 -42t-112 -113.5t-41.5 -156.5q0 -82 38.5 -151.5zM536.5 59q71.5 42 113 113.5t41.5 156.5q0 81 -38.5 150t-103.5 112l-316 -536q70 -38 148 -38q84 0 155.5 42z" />
    <glyph glyph-name="Ugrave" unicode="&#xd9;" horiz-adv-x="678" 
d="M434 11.5q45 18.5 79 54.5q34 35 52 80.5t18 94.5v409h-19v-409q0 -46 -17 -87t-49 -73q-31 -33 -72 -50t-86 -17q-95 0 -160 67q-31 32 -47.5 73.5t-16.5 86.5v409h-21v-409q0 -49 18 -94.5t52 -80.5q34 -36 79.5 -54.5t95.5 -18.5q49 0 94 18.5zM325 743h17l-71 93h-41
z" />
    <glyph glyph-name="Uacute" unicode="&#xda;" horiz-adv-x="678" 
d="M434 11.5q45 18.5 79 54.5q34 35 52 80.5t18 94.5v409h-19v-409q0 -46 -17 -87t-49 -73q-31 -33 -72 -50t-86 -17q-95 0 -160 67q-31 32 -47.5 73.5t-16.5 86.5v409h-21v-409q0 -49 18 -94.5t52 -80.5q34 -36 79.5 -54.5t95.5 -18.5q49 0 94 18.5zM322 743h18l95 94h-43z
" />
    <glyph glyph-name="Ucircumflex" unicode="&#xdb;" horiz-adv-x="678" 
d="M434 11.5q45 18.5 79 54.5q34 35 52 80.5t18 94.5v409h-19v-409q0 -46 -17 -87t-49 -73q-31 -33 -72 -50t-86 -17q-95 0 -160 67q-31 32 -47.5 73.5t-16.5 86.5v409h-21v-409q0 -49 18 -94.5t52 -80.5q34 -36 79.5 -54.5t95.5 -18.5q49 0 94 18.5zM440 743h-16l-74 72
l-75 -72h-16l70 93h42z" />
    <glyph glyph-name="Udieresis" unicode="&#xdc;" horiz-adv-x="678" 
d="M434 11.5q45 18.5 79 54.5q34 35 52 80.5t18 94.5v409h-19v-409q0 -46 -17 -87t-49 -73q-31 -33 -72 -50t-86 -17q-95 0 -160 67q-31 32 -47.5 73.5t-16.5 86.5v409h-21v-409q0 -49 18 -94.5t52 -80.5q34 -36 79.5 -54.5t95.5 -18.5q49 0 94 18.5zM227.5 780.5
q-6.5 -6.5 -6.5 -15.5t6.5 -15.5t15.5 -6.5t15.5 6.5t6.5 15.5t-6.5 15.5t-15.5 6.5t-15.5 -6.5zM409 780.5q-7 -6.5 -7 -15.5t7 -15.5t15 -6.5q9 0 15.5 6.5t6.5 15.5t-6 15.5t-16 6.5q-8 0 -15 -6.5z" />
    <glyph glyph-name="Yacute" unicode="&#xdd;" horiz-adv-x="684" 
d="M342 269l268 381h24l-282 -403v-247h-21v247l-281 403h25zM326 743h18l95 94h-43z" />
    <glyph glyph-name="germandbls" unicode="&#xdf;" horiz-adv-x="599" 
d="M510 271q32 -41 32 -93q0 -45 -26 -86t-74 -66.5t-112 -25.5h-112v21h112q57 0 100.5 22.5t67 58.5t23.5 76q0 46 -28 82t-67 53q-55 23 -130 23h-78v20h48q40 0 74.5 18.5t55 50t20.5 68.5t-20.5 68t-55 49.5t-74.5 18.5q-41 0 -75.5 -18.5t-54.5 -49.5t-20 -68v-493
h-21v493q0 43 23 79t62 57t86 21q46 0 85 -21t62.5 -57t23.5 -79q0 -44 -25.5 -81.5t-67.5 -58.5q54 -4 90 -22q44 -19 76 -60z" />
    <glyph glyph-name="agrave" unicode="&#xe0;" 
d="M358 658l290 -658h-22l-84 191h-378l-89 -191h-23zM173 211h359l-175 398zM346 743h17l-71 93h-41z" />
    <glyph glyph-name="aacute" unicode="&#xe1;" 
d="M358 658l290 -658h-22l-84 191h-378l-89 -191h-23zM173 211h359l-175 398zM340 743h18l95 94h-43z" />
    <glyph glyph-name="acircumflex" unicode="&#xe2;" 
d="M358 658l290 -658h-22l-84 191h-378l-89 -191h-23zM173 211h359l-175 398zM442 743h-16l-74 72l-75 -72h-16l70 93h42z" />
    <glyph glyph-name="atilde" unicode="&#xe3;" 
d="M358 658l290 -658h-22l-84 191h-378l-89 -191h-23zM173 211h359l-175 398zM232 757q10 19 38 27q5 2 16 2q27 0 54 -20q34 -24 66 -24q13 0 23 3q19 6 33 18.5t21.5 25t7.5 15.5l-18 8q-1 -1 -11.5 -20t-38.5 -27q-10 -2 -16 -2q-25 0 -54 20q-36 24 -67 24q-11 0 -22 -3
q-19 -6 -32.5 -19t-21 -25.5t-7.5 -14.5l18 -8q1 1 11 20z" />
    <glyph glyph-name="adieresis" unicode="&#xe4;" 
d="M358 658l290 -658h-22l-84 191h-378l-89 -191h-23zM173 211h359l-175 398zM241.5 780.5q-6.5 -6.5 -6.5 -15.5t6.5 -15.5t15.5 -6.5t15.5 6.5t6.5 15.5t-6.5 15.5t-15.5 6.5t-15.5 -6.5zM423 780.5q-7 -6.5 -7 -15.5t7 -15.5t15 -6.5q9 0 15.5 6.5t6.5 15.5t-6 15.5
t-16 6.5q-8 0 -15 -6.5z" />
    <glyph glyph-name="aring" unicode="&#xe5;" 
d="M358 658l290 -658h-22l-84 191h-378l-89 -191h-23zM173 211h359l-175 398zM409 765q22 22 22 54q0 31 -22.5 53.5t-53.5 22.5t-53.5 -22.5t-22.5 -53.5q0 -32 22 -54t54 -22t54 22zM394.5 857.5q16.5 -16.5 16.5 -38.5q0 -23 -16.5 -39.5t-39.5 -16.5t-39 16.5t-16 39.5
t16 39t39 16t39.5 -16.5z" />
    <glyph glyph-name="ae" unicode="&#xe6;" horiz-adv-x="981" 
d="M887 650v-21h-404v-293h319v-21h-319v-294h404v-21h-425v225h-283l-104 -225h-23l301 650h534zM462 246v383h-95l-178 -383h273z" />
    <glyph glyph-name="ccedilla" unicode="&#xe7;" horiz-adv-x="690" 
d="M524 25.5q67 32.5 114 91.5l-17 12q-45 -54 -107.5 -84.5t-132.5 -30.5q-84 0 -154.5 42t-112 113.5t-41.5 156.5t41.5 156.5t112 114t154.5 42.5q65 0 125 -27t104 -76l15 14q-47 52 -110.5 80t-133.5 28q-89 0 -164.5 -44.5t-120 -121t-44.5 -166.5t44.5 -166.5
t120 -121.5t164.5 -45q76 0 143 32.5zM431 -111q24 15 24 41q0 25 -24 42q-20 14 -42 15v23h-21v-43h11q22 0 38.5 -11t16.5 -26q0 -14 -16.5 -25.5t-38.5 -11.5t-39 11.5t-17 25.5h-20q0 -26 23 -41q22 -16 53 -16q32 0 52 16z" />
    <glyph glyph-name="egrave" unicode="&#xe8;" horiz-adv-x="614" 
d="M521 0v22h-405v293h318v21h-318v293h405v21h-426v-650h426zM305 743h17l-71 93h-41z" />
    <glyph glyph-name="eacute" unicode="&#xe9;" horiz-adv-x="614" 
d="M521 0v22h-405v293h318v21h-318v293h405v21h-426v-650h426zM303 743h18l95 94h-43z" />
    <glyph glyph-name="ecircumflex" unicode="&#xea;" horiz-adv-x="614" 
d="M521 0v22h-405v293h318v21h-318v293h405v21h-426v-650h426zM411 743h-16l-74 72l-75 -72h-16l70 93h42z" />
    <glyph glyph-name="edieresis" unicode="&#xeb;" horiz-adv-x="614" 
d="M521 0v22h-405v293h318v21h-318v293h405v21h-426v-650h426zM209.5 780.5q-6.5 -6.5 -6.5 -15.5t6.5 -15.5t15.5 -6.5t15.5 6.5t6.5 15.5t-6.5 15.5t-15.5 6.5t-15.5 -6.5zM391 780.5q-7 -6.5 -7 -15.5t7 -15.5t15 -6.5q9 0 15.5 6.5t6.5 15.5t-6 15.5t-16 6.5
q-8 0 -15 -6.5z" />
    <glyph glyph-name="igrave" unicode="&#xec;" horiz-adv-x="244" 
d="M137 0v650h-21v-650h21zM118 731h16l-69 95h-42z" />
    <glyph glyph-name="iacute" unicode="&#xed;" horiz-adv-x="244" 
d="M128 0v650h-21v-650h21zM109 731h16l96 94h-42z" />
    <glyph glyph-name="icircumflex" unicode="&#xee;" horiz-adv-x="235" 
d="M127 0v650h-21v-650h21zM209 731h-17l-74 74l-75 -74h-17l71 94h41z" />
    <glyph glyph-name="idieresis" unicode="&#xef;" horiz-adv-x="234" 
d="M126 0v650h-21v-650h21zM10.5 769q-6.5 -6 -6.5 -16q0 -8 6.5 -15t15.5 -7t15.5 7t6.5 15q0 10 -6.5 16t-15.5 6t-15.5 -6zM191.5 769q-6.5 -6 -6.5 -16q0 -8 6.5 -15t15.5 -7t16 7t7 15q0 9 -7 15.5t-16 6.5t-15.5 -6z" />
    <glyph glyph-name="ntilde" unicode="&#xf1;" horiz-adv-x="680" 
d="M586 -12v662h-21v-597l-469 605v-658h21v594zM228 757q10 19 38 27q5 2 16 2q27 0 54 -20q34 -24 66 -24q13 0 23 3q19 6 33 18.5t21.5 25t7.5 15.5l-18 8q-1 -1 -11.5 -20t-38.5 -27q-10 -2 -16 -2q-25 0 -54 20q-36 24 -67 24q-11 0 -22 -3q-19 -6 -32.5 -19t-21 -25.5
t-7.5 -14.5l18 -8q1 1 11 20z" />
    <glyph glyph-name="ograve" unicode="&#xf2;" horiz-adv-x="762" 
d="M545.5 38q75.5 45 120 121.5t44.5 166.5t-44.5 166.5t-120 121t-164.5 44.5t-164.5 -44.5t-120 -121t-44.5 -166.5t44.5 -166.5t120 -121.5t164.5 -45t164.5 45zM536.5 596q71.5 -42 113 -113.5t41.5 -156.5t-41.5 -156.5t-113 -113.5t-155.5 -42t-154.5 42t-112 113.5
t-41.5 156.5t41.5 156.5t112 113.5t154.5 42t155.5 -42zM360 743h17l-71 93h-41z" />
    <glyph glyph-name="oacute" unicode="&#xf3;" horiz-adv-x="762" 
d="M545.5 38q75.5 45 120 121.5t44.5 166.5t-44.5 166.5t-120 121t-164.5 44.5t-164.5 -44.5t-120 -121t-44.5 -166.5t44.5 -166.5t120 -121.5t164.5 -45t164.5 45zM536.5 596q71.5 -42 113 -113.5t41.5 -156.5t-41.5 -156.5t-113 -113.5t-155.5 -42t-154.5 42t-112 113.5
t-41.5 156.5t41.5 156.5t112 113.5t154.5 42t155.5 -42zM360 743h18l95 94h-43z" />
    <glyph glyph-name="ocircumflex" unicode="&#xf4;" horiz-adv-x="762" 
d="M545.5 38q75.5 45 120 121.5t44.5 166.5t-44.5 166.5t-120 121t-164.5 44.5t-164.5 -44.5t-120 -121t-44.5 -166.5t44.5 -166.5t120 -121.5t164.5 -45t164.5 45zM536.5 596q71.5 -42 113 -113.5t41.5 -156.5t-41.5 -156.5t-113 -113.5t-155.5 -42t-154.5 42t-112 113.5
t-41.5 156.5t41.5 156.5t112 113.5t154.5 42t155.5 -42zM468 743h-16l-74 72l-75 -72h-16l70 93h42z" />
    <glyph glyph-name="otilde" unicode="&#xf5;" horiz-adv-x="762" 
d="M545.5 38q75.5 45 120 121.5t44.5 166.5t-44.5 166.5t-120 121t-164.5 44.5t-164.5 -44.5t-120 -121t-44.5 -166.5t44.5 -166.5t120 -121.5t164.5 -45t164.5 45zM536.5 596q71.5 -42 113 -113.5t41.5 -156.5t-41.5 -156.5t-113 -113.5t-155.5 -42t-154.5 42t-112 113.5
t-41.5 156.5t41.5 156.5t112 113.5t154.5 42t155.5 -42zM248 757q10 19 38 27q5 2 16 2q27 0 54 -20q34 -24 66 -24q13 0 23 3q19 6 33 18.5t21.5 25t7.5 15.5l-18 8q-1 -1 -11.5 -20t-38.5 -27q-10 -2 -16 -2q-25 0 -54 20q-36 24 -67 24q-11 0 -22 -3q-19 -6 -32.5 -19
t-21 -25.5t-7.5 -14.5l18 -8q1 1 11 20z" />
    <glyph glyph-name="odieresis" unicode="&#xf6;" horiz-adv-x="762" 
d="M545.5 38q75.5 45 120 121.5t44.5 166.5t-44.5 166.5t-120 121t-164.5 44.5t-164.5 -44.5t-120 -121t-44.5 -166.5t44.5 -166.5t120 -121.5t164.5 -45t164.5 45zM536.5 596q71.5 -42 113 -113.5t41.5 -156.5t-41.5 -156.5t-113 -113.5t-155.5 -42t-154.5 42t-112 113.5
t-41.5 156.5t41.5 156.5t112 113.5t154.5 42t155.5 -42zM261.5 780.5q-6.5 -6.5 -6.5 -15.5t6.5 -15.5t15.5 -6.5t15.5 6.5t6.5 15.5t-6.5 15.5t-15.5 6.5t-15.5 -6.5zM443 780.5q-7 -6.5 -7 -15.5t7 -15.5t15 -6.5q9 0 15.5 6.5t6.5 15.5t-6 15.5t-16 6.5q-8 0 -15 -6.5z
" />
    <glyph glyph-name="oslash" unicode="&#xf8;" horiz-adv-x="763" 
d="M670 489.5q41 -74.5 41 -160.5q0 -90 -44.5 -166t-120.5 -121t-165 -45q-83 0 -158 40l-22 -37h-24l29 49q-71 44 -112.5 118.5t-41.5 161.5q0 90 44.5 166.5t120 121.5t164.5 45q85 0 161 -43l18 32h24l-25 -42q70 -45 111 -119.5zM111.5 177.5q38.5 -69.5 104.5 -111.5
l315 536q-73 39 -150 39q-84 0 -154.5 -42t-112 -113.5t-41.5 -156.5q0 -82 38.5 -151.5zM536.5 59q71.5 42 113 113.5t41.5 156.5q0 81 -38.5 150t-103.5 112l-316 -536q70 -38 148 -38q84 0 155.5 42z" />
    <glyph glyph-name="ugrave" unicode="&#xf9;" horiz-adv-x="678" 
d="M434 11.5q45 18.5 79 54.5q34 35 52 80.5t18 94.5v409h-19v-409q0 -46 -17 -87t-49 -73q-31 -33 -72 -50t-86 -17q-95 0 -160 67q-31 32 -47.5 73.5t-16.5 86.5v409h-21v-409q0 -49 18 -94.5t52 -80.5q34 -36 79.5 -54.5t95.5 -18.5q49 0 94 18.5zM325 743h17l-71 93h-41
z" />
    <glyph glyph-name="uacute" unicode="&#xfa;" horiz-adv-x="678" 
d="M434 11.5q45 18.5 79 54.5q34 35 52 80.5t18 94.5v409h-19v-409q0 -46 -17 -87t-49 -73q-31 -33 -72 -50t-86 -17q-95 0 -160 67q-31 32 -47.5 73.5t-16.5 86.5v409h-21v-409q0 -49 18 -94.5t52 -80.5q34 -36 79.5 -54.5t95.5 -18.5q49 0 94 18.5zM322 743h18l95 94h-43z
" />
    <glyph glyph-name="ucircumflex" unicode="&#xfb;" horiz-adv-x="678" 
d="M434 11.5q45 18.5 79 54.5q34 35 52 80.5t18 94.5v409h-19v-409q0 -46 -17 -87t-49 -73q-31 -33 -72 -50t-86 -17q-95 0 -160 67q-31 32 -47.5 73.5t-16.5 86.5v409h-21v-409q0 -49 18 -94.5t52 -80.5q34 -36 79.5 -54.5t95.5 -18.5q49 0 94 18.5zM440 743h-16l-74 72
l-75 -72h-16l70 93h42z" />
    <glyph glyph-name="udieresis" unicode="&#xfc;" horiz-adv-x="678" 
d="M434 11.5q45 18.5 79 54.5q34 35 52 80.5t18 94.5v409h-19v-409q0 -46 -17 -87t-49 -73q-31 -33 -72 -50t-86 -17q-95 0 -160 67q-31 32 -47.5 73.5t-16.5 86.5v409h-21v-409q0 -49 18 -94.5t52 -80.5q34 -36 79.5 -54.5t95.5 -18.5q49 0 94 18.5zM227.5 780.5
q-6.5 -6.5 -6.5 -15.5t6.5 -15.5t15.5 -6.5t15.5 6.5t6.5 15.5t-6.5 15.5t-15.5 6.5t-15.5 -6.5zM409 780.5q-7 -6.5 -7 -15.5t7 -15.5t15 -6.5q9 0 15.5 6.5t6.5 15.5t-6 15.5t-16 6.5q-8 0 -15 -6.5z" />
    <glyph glyph-name="yacute" unicode="&#xfd;" horiz-adv-x="684" 
d="M342 269l268 381h24l-282 -403v-247h-21v247l-281 403h25zM326 743h18l95 94h-43z" />
    <glyph glyph-name="ydieresis" unicode="&#xff;" horiz-adv-x="684" 
d="M342 269l268 381h24l-282 -403v-247h-21v247l-281 403h25zM228.5 780.5q-6.5 -6.5 -6.5 -15.5t6.5 -15.5t15.5 -6.5t15.5 6.5t6.5 15.5t-6.5 15.5t-15.5 6.5t-15.5 -6.5zM410 780.5q-7 -6.5 -7 -15.5t7 -15.5t15 -6.5q9 0 15.5 6.5t6.5 15.5t-6 15.5t-16 6.5
q-8 0 -15 -6.5z" />
    <glyph glyph-name="OE" unicode="&#x152;" horiz-adv-x="1149" 
d="M651 629v-294h319v-21h-319v-293h405v-21h-425v129q-45 -60 -112.5 -94.5t-144.5 -34.5q-88 0 -161.5 44t-117 118.5t-43.5 163.5q0 88 43.5 162.5t117 118t161.5 43.5q77 0 144.5 -34.5t112.5 -94.5v129h425v-21h-405zM522 60q68 39 109 105v321q-41 66 -109 105.5
t-148 39.5q-82 0 -151 -41.5t-110 -111.5t-41 -152q0 -83 41 -153t110 -111t151 -41q80 0 148 39z" />
    <glyph glyph-name="oe" unicode="&#x153;" horiz-adv-x="1149" 
d="M651 629v-294h319v-21h-319v-293h405v-21h-425v129q-45 -60 -112.5 -94.5t-144.5 -34.5q-88 0 -161.5 44t-117 118.5t-43.5 163.5q0 88 43.5 162.5t117 118t161.5 43.5q77 0 144.5 -34.5t112.5 -94.5v129h425v-21h-405zM522 60q68 39 109 105v321q-41 66 -109 105.5
t-148 39.5q-82 0 -151 -41.5t-110 -111.5t-41 -152q0 -83 41 -153t110 -111t151 -41q80 0 148 39z" />
    <glyph glyph-name="Wcircumflex" unicode="&#x174;" horiz-adv-x="902" 
d="M643 53l185 597h22l-206 -662l-191 540l-193 -540l-208 662h22l187 -597l192 536zM525 743h-16l-74 72l-75 -72h-16l70 93h42z" />
    <glyph glyph-name="wcircumflex" unicode="&#x175;" horiz-adv-x="902" 
d="M643 53l185 597h22l-206 -662l-191 540l-193 -540l-208 662h22l187 -597l192 536zM525 743h-16l-74 72l-75 -72h-16l70 93h42z" />
    <glyph glyph-name="Ycircumflex" unicode="&#x176;" horiz-adv-x="684" 
d="M342 269l268 381h24l-282 -403v-247h-21v247l-281 403h25zM429 743h-16l-74 72l-75 -72h-16l70 93h42z" />
    <glyph glyph-name="ycircumflex" unicode="&#x177;" horiz-adv-x="684" 
d="M342 269l268 381h24l-282 -403v-247h-21v247l-281 403h25zM429 743h-16l-74 72l-75 -72h-16l70 93h42z" />
    <glyph glyph-name="Ydieresis" unicode="&#x178;" horiz-adv-x="684" 
d="M342 269l268 381h24l-282 -403v-247h-21v247l-281 403h25zM228.5 780.5q-6.5 -6.5 -6.5 -15.5t6.5 -15.5t15.5 -6.5t15.5 6.5t6.5 15.5t-6.5 15.5t-15.5 6.5t-15.5 -6.5zM410 780.5q-7 -6.5 -7 -15.5t7 -15.5t15 -6.5q9 0 15.5 6.5t6.5 15.5t-6 15.5t-16 6.5
q-8 0 -15 -6.5z" />
    <glyph glyph-name="gravecomb" unicode="&#x300;" horiz-adv-x="0" 
d="M-377 743h17l-71 93h-41z" />
    <glyph glyph-name="acutecomb" unicode="&#x301;" horiz-adv-x="0" 
d="M-405 743h18l95 94h-43z" />
    <glyph glyph-name="uni0302" unicode="&#x302;" horiz-adv-x="0" 
d="M-282 743h-16l-74 72l-75 -72h-16l70 93h42z" />
    <glyph glyph-name="tildecomb" unicode="&#x303;" horiz-adv-x="0" 
d="M-465 757q10 19 38 27q5 2 16 2q27 0 54 -20q34 -24 66 -24q13 0 23 3q19 6 33 18.5t21.5 25t7.5 15.5l-18 8q-1 -1 -11.5 -20t-38.5 -27q-10 -2 -16 -2q-25 0 -54 20q-36 24 -67 24q-11 0 -22 -3q-19 -6 -32.5 -19t-21 -25.5t-7.5 -14.5l18 -8q1 1 11 20z" />
    <glyph glyph-name="uni0307" unicode="&#x307;" horiz-adv-x="0" 
d="M-361 780.5q-6 -6.5 -6 -15.5t6 -15.5t16 -6.5q8 0 15 6.5t7 15.5t-7 15.5t-15 6.5q-10 0 -16 -6.5z" />
    <glyph glyph-name="uni0308" unicode="&#x308;" horiz-adv-x="0" 
d="M-501.5 780.5q-6.5 -6.5 -6.5 -15.5t6.5 -15.5t15.5 -6.5t15.5 6.5t6.5 15.5t-6.5 15.5t-15.5 6.5t-15.5 -6.5zM-320 780.5q-7 -6.5 -7 -15.5t7 -15.5t15 -6.5q9 0 15.5 6.5t6.5 15.5t-6 15.5t-16 6.5q-8 0 -15 -6.5z" />
    <glyph glyph-name="uni030A" unicode="&#x30a;" horiz-adv-x="0" 
d="M-317 765q22 22 22 54q0 31 -22.5 53.5t-53.5 22.5t-53.5 -22.5t-22.5 -53.5q0 -32 22 -54t54 -22t54 22zM-331.5 857.5q16.5 -16.5 16.5 -38.5q0 -23 -16.5 -39.5t-39.5 -16.5t-39 16.5t-16 39.5t16 39t39 16t39.5 -16.5z" />
    <glyph glyph-name="uni0327" unicode="&#x327;" horiz-adv-x="0" 
d="M-292 -121q24 15 24 41q0 25 -24 42q-20 14 -42 15v23h-21v-43h11q22 0 38.5 -11t16.5 -26q0 -14 -16.5 -25.5t-38.5 -11.5t-39 11.5t-17 25.5h-20q0 -26 23 -41q22 -16 53 -16q32 0 52 16z" />
    <glyph glyph-name="uni0335" unicode="&#x335;" horiz-adv-x="0" 
d="M-260 316v20h-409v-20h409z" />
    <glyph glyph-name="uni0338" unicode="&#x338;" horiz-adv-x="0" 
d="M-693 0l383 651h24l-383 -651h-24z" />
    <glyph glyph-name="Wgrave" unicode="&#x1e80;" horiz-adv-x="902" 
d="M643 53l185 597h22l-206 -662l-191 540l-193 -540l-208 662h22l187 -597l192 536zM427 743h17l-71 93h-41z" />
    <glyph glyph-name="wgrave" unicode="&#x1e81;" horiz-adv-x="902" 
d="M643 53l185 597h22l-206 -662l-191 540l-193 -540l-208 662h22l187 -597l192 536zM427 743h17l-71 93h-41z" />
    <glyph glyph-name="Wacute" unicode="&#x1e82;" horiz-adv-x="902" 
d="M643 53l185 597h22l-206 -662l-191 540l-193 -540l-208 662h22l187 -597l192 536zM422 743h18l95 94h-43z" />
    <glyph glyph-name="wacute" unicode="&#x1e83;" horiz-adv-x="902" 
d="M643 53l185 597h22l-206 -662l-191 540l-193 -540l-208 662h22l187 -597l192 536zM422 743h18l95 94h-43z" />
    <glyph glyph-name="Wdieresis" unicode="&#x1e84;" horiz-adv-x="902" 
d="M643 53l185 597h22l-206 -662l-191 540l-193 -540l-208 662h22l187 -597l192 536zM322.5 780.5q-6.5 -6.5 -6.5 -15.5t6.5 -15.5t15.5 -6.5t15.5 6.5t6.5 15.5t-6.5 15.5t-15.5 6.5t-15.5 -6.5zM504 780.5q-7 -6.5 -7 -15.5t7 -15.5t15 -6.5q9 0 15.5 6.5t6.5 15.5
t-6 15.5t-16 6.5q-8 0 -15 -6.5z" />
    <glyph glyph-name="wdieresis" unicode="&#x1e85;" horiz-adv-x="902" 
d="M643 53l185 597h22l-206 -662l-191 540l-193 -540l-208 662h22l187 -597l192 536zM322.5 780.5q-6.5 -6.5 -6.5 -15.5t6.5 -15.5t15.5 -6.5t15.5 6.5t6.5 15.5t-6.5 15.5t-15.5 6.5t-15.5 -6.5zM504 780.5q-7 -6.5 -7 -15.5t7 -15.5t15 -6.5q9 0 15.5 6.5t6.5 15.5
t-6 15.5t-16 6.5q-8 0 -15 -6.5z" />
    <glyph glyph-name="Ygrave" unicode="&#x1ef2;" horiz-adv-x="684" 
d="M342 269l268 381h24l-282 -403v-247h-21v247l-281 403h25zM334 743h17l-71 93h-41z" />
    <glyph glyph-name="ygrave" unicode="&#x1ef3;" horiz-adv-x="684" 
d="M342 269l268 381h24l-282 -403v-247h-21v247l-281 403h25zM334 743h17l-71 93h-41z" />
    <glyph glyph-name="endash" unicode="&#x2013;" horiz-adv-x="547" 
d="M478 316v20h-409v-20h409z" />
    <glyph glyph-name="quoteleft" unicode="&#x2018;" horiz-adv-x="225" 
d="M81 565h31l44 85h-46z" />
    <glyph glyph-name="quoteright" unicode="&#x2019;" horiz-adv-x="225" 
d="M81 565h31l44 85h-46z" />
    <glyph glyph-name="quotesinglbase" unicode="&#x201a;" horiz-adv-x="219" 
d="M64 -43h31l44 86h-47z" />
    <glyph glyph-name="quotedblleft" unicode="&#x201c;" horiz-adv-x="338" 
d="M177 565h31l44 85h-45zM87 565h30l45 85h-46z" />
    <glyph glyph-name="quotedblright" unicode="&#x201d;" horiz-adv-x="338" 
d="M177 565h31l44 85h-45zM87 565h30l45 85h-46z" />
    <glyph glyph-name="quotedblbase" unicode="&#x201e;" horiz-adv-x="219" 
d="M64 -43h31l44 86h-47zM64 -43h31l44 86h-47z" />
    <glyph glyph-name="ellipsis" unicode="&#x2026;" horiz-adv-x="472" 
d="M90 9q9 -9 22 -9q12 0 21 9t9 22q0 12 -9 21t-21 9q-13 0 -22 -9t-9 -21q0 -13 9 -22zM213.5 9q9.5 -9 22.5 -9t22 9t9 22q0 12 -9 21t-22 9t-22.5 -9t-9.5 -21q0 -13 9.5 -22zM338.5 9q9.5 -9 21.5 -9q13 0 22.5 9t9.5 21q0 13 -9.5 22t-22.5 9q-12 0 -21.5 -9t-9.5 -22
q0 -12 9.5 -21z" />
    <glyph glyph-name="guilsinglleft" unicode="&#x2039;" horiz-adv-x="477" 
d="M117 325l279 -204v-25l-315 229l315 227v-25z" />
    <glyph glyph-name="guilsinglright" unicode="&#x203a;" horiz-adv-x="476" 
d="M81 553l314 -228l-314 -228v25l279 203l-279 203v25z" />
    <glyph glyph-name="fraction" unicode="&#x2044;" horiz-adv-x="546" 
d="M69 0l384 650h24l-383 -650h-25z" />
    <glyph glyph-name="Euro" unicode="&#x20ac;" horiz-adv-x="688" 
d="M367.5 616.5q-59.5 -27.5 -103 -76.5t-63.5 -111h300v-21h-306q-9 -37 -9 -75q0 -35 8 -72h307v-21h-301q19 -63 62.5 -113t103.5 -78t128 -28h101v-21h-101q-73 0 -138 31t-111.5 85.5t-65.5 123.5h-127v21h121q-7 40 -7 72q0 35 8 75h-122v21h128q20 68 66.5 121.5
t111 83.5t136.5 30h101v-20h-101q-67 0 -126.5 -27.5z" />
    <glyph glyph-name="trademark" unicode="&#x2122;" horiz-adv-x="693" 
 />
    <glyph glyph-name="minus" unicode="&#x2212;" horiz-adv-x="547" 
d="M478 316v20h-409v-20h409z" />
    <glyph glyph-name="A.001" 
d="M357 658l291 -658h-23l-268 609l-282 -609h-23z" />
    <glyph glyph-name="a.001" 
d="M357 658l291 -658h-23l-268 609l-282 -609h-23z" />
    </font>
</defs>
</svg>
