<?xml version="1.0" encoding="utf-8"?>
<!-- Generator: Adobe Illustrator 22.1.0, SVG Export Plug-In . SVG Version: 6.00 Build 0)  -->
<svg version="1.1" id="Layer_1" xmlns="http://www.w3.org/2000/svg" xmlns:xlink="http://www.w3.org/1999/xlink" x="0px" y="0px"
	 width="159.4px" height="118.7px" viewBox="0 0 159.4 118.7" style="enable-background:new 0 0 159.4 118.7;" xml:space="preserve"
	>
<style type="text/css">
	.st0{fill:#61462D;}
	.st1{fill:#472F1C;}
	.st2{fill:#F4D540;}
	.st3{fill:#675A25;}
	.st4{fill:#A09433;}
	.st5{fill:#D6C144;}
	.st6{fill:#C2AA36;}
	.st7{fill:#D7B62E;}
	.st8{fill:#88792F;}
	.st9{fill:#FEC774;}
	.st10{fill:#DEA252;}
	.st11{opacity:0.5;fill:#674A3E;}
	.st12{fill:#675B25;}
	.st13{fill:#897B2F;}
	.st14{filter:url(#Adobe_OpacityMaskFilter);}
	.st15{filter:url(#Adobe_OpacityMaskFilter_1_);}
	.st16{mask:url(#SVGID_1_);fill:url(#SVGID_2_);}
	.st17{opacity:0.3;fill:url(#SVGID_3_);}
	.st18{fill:#766B2B;}
	.st19{fill:#FFECDE;}
	.st20{fill:#3A291E;}
	.st21{fill:#715342;}
	.st22{fill:#FEEDE4;}
	.st23{fill:#FBAF63;}
</style>
<g>
	<path class="st0" d="M68.6,23.1c-7,5.6-16.7,8.4-17.3,2s-41.1,33-51.2-5.8c-1.4-5.2,19.2-0.2,21.5-0.4c2.2-0.2,12.8-16.2,28.7-18.6
		C66.2-2.2,80.4,13.7,68.6,23.1z"/>
	<path class="st1" d="M69.5,6.9c-4.4,4.6-11.6,8.9-20.3,11.7c-7.7,2.4-15.1,3.2-21,2.5c-1.6,4.7-7.8,8.2-15.2,8.2
		c-4,0-7.6-1-10.3-2.7c13.1,26,47.9-7.5,48.5-1.5c0.6,6.4,10.3,3.6,17.3-2C74.6,18.3,73.9,11.8,69.5,6.9z"/>
	<rect x="67.4" y="19.2" transform="matrix(0.7 -0.7141 0.7141 0.7 5.1325 57.0011)" class="st2" width="6" height="6.4"/>
	<path class="st3" d="M107.3,89.3C100,81.5,94,72.8,72.9,80.4c-13.6,4.9-29.4-5.2-39.2-0.5c0,0,12.7,16.7,11.6,28
		C66,112.6,96.8,119.1,107.3,89.3z"/>
	<path class="st4" d="M74.3,117.1c-11.4,1.4-33.9-1.9-45.9-8l0.1-2.4c0,0,5.9,5.7,41.7,4.7L74.3,117.1z"/>
	<path class="st5" d="M108.9,90.9c4.3-0.5,18.4,7.8,40.3-6.1l2.2,1.3c0,0-7.2,13.9-40.7,11.7C102.5,97.3,108.9,90.9,108.9,90.9z"/>
	<path class="st5" d="M87,117.5c-4.8,0.9-12,1.8-17.9-1.6c-2-1.1-3.4-3.1-3.8-5.4l-1.4-8.2c0,0,6.8-5.5,12.7-7.7l11.2,22.8"/>
	<path class="st6" d="M73.7,99.8c1.5-0.6,3-1.2,4.5-1.6l-1.7-3.5c-5.8,2.2-12.7,7.7-12.7,7.7l0.5,2.9C67,103.2,70.2,101.3,73.7,99.8
		z"/>
	<path class="st7" d="M89.3,116.1c0-0.9-0.4-1.5-0.9-1.5c-0.5,0-0.9,0.7-0.9,1.5s0.4,1.5,0.9,1.5C88.9,117.7,89.3,117,89.3,116.1z"
		/>
	<path class="st7" d="M79.8,94.1c0-0.9-0.8-1.5-1.7-1.5c-0.9,0-1.7,0.7-1.7,1.5s0.8,1.5,1.7,1.5C79.1,95.7,79.8,95,79.8,94.1z"/>
	<path class="st4" d="M87.7,117.4c-4.7,1-19.1-11.5-11.2-22.9c10.9-5.7,27.5-12.4,37.4-6.5C116.4,89.9,122.5,108.8,87.7,117.4z"/>
	<path class="st8" d="M75.8,99.8c9.6-6.5,23.8-14.4,34.9-13.3c-10-3.1-24.4,2.8-34.2,7.9c-2.1,3.1-2.6,6.2-2.2,9.2
		C74.6,102.4,75.1,101.1,75.8,99.8z"/>
	<path class="st5" d="M102.2,87.9c-0.8-1.9-3.6-2.7-6.3-1.6c-2.7,1.1-4.2,3.5-3.4,5.5c0.8,1.9,3.6,2.7,6.3,1.6
		C101.5,92.3,103,89.8,102.2,87.9z"/>
	<path class="st2" d="M115.6,92.8c0.6-1.4,1-6.6-5.2-9.9c-6.2-3.3-13.1-4-18.6-4.9C93,78.5,114.1,96.2,115.6,92.8z"/>
	<polygon class="st9" points="113.9,91.1 107.3,85.1 107.5,78.1 115,78.9 	"/>
	<path class="st5" d="M96.9,91.1c-2.9-1.8-25.2-11-31.4-12.3l0.1-2.7c0,0,28.6,7,33.9,10.3C104.9,89.7,96.9,91.1,96.9,91.1z"/>
	<polygon class="st2" points="97.2,111.3 101.3,104.5 112,102.8 105.5,109.3 	"/>
	<polygon class="st2" points="98.6,104.3 100,102.1 103.4,101.6 101.3,103.7 	"/>
	<polygon class="st2" points="112.5,101.7 112.4,99.1 115,96.8 114.4,99.7 	"/>
	<polygon class="st2" points="91.6,113.5 93.3,111.6 96.8,111.8 94.3,113.4 	"/>
	<path class="st4" d="M29.6,109.5c0,0-7.5,0.9-9-0.6c0,0,5.5-2.3,7.5-2.4C30.1,106.3,29.6,109.5,29.6,109.5z"/>
	<path class="st4" d="M65,108.8c-9.7,0.5-24.9-5.3-39.7-10.2l0.2-2.3c0,0,9.5,5.2,45.3,4.7C72.6,103.4,70,108.4,65,108.8z"/>
	<path class="st4" d="M26.9,98.9c0,0-7.5,0.9-9-0.6c0,0,5.5-2.3,7.5-2.4C27.5,95.7,26.9,98.9,26.9,98.9z"/>
	<path class="st2" d="M73.4,95c-1,2.2-6.7,18.9,11,23.7l4.5-1c0,0-18.9-6.7-11.2-25L73.4,95z"/>
	<path class="st2" d="M33.9,91c0,0,8.1-7.6,27.4-9.1c0,0-17.1-6.4-27.7-1.9C33.7,79.9,28.5,83.6,33.9,91z"/>
	<path class="st2" d="M26.9,99.6c0,0-2.3-2.2,0.5-4l7,1.5v5.5L26.9,99.6z"/>
	<path class="st2" d="M29.9,111.3c0,0-2.5-2,0.3-4l7,1.1l0.3,5.5L29.9,111.3z"/>
	<path class="st10" d="M148.9,87.5c0.2-4.5,1.8-6.9,3.9-6.6C155,81.3,158.7,87.9,148.9,87.5z"/>
	<path class="st9" d="M151.1,84c0.2-1.1,0.1-2.1-0.4-2.2c-0.5-0.1-1.1,0.6-1.3,1.7c-0.2,1.1-0.1,2.1,0.4,2.2
		C150.3,85.9,150.8,85.1,151.1,84z"/>
	<path class="st9" d="M151.2,83.7c0.8,0.6,1.2,0.6,1.5,0.2c0.3-0.4,0.5-1-0.4-1.6c-0.8-0.6-1.7-0.7-2-0.3
		C149.9,82.3,150.3,83.1,151.2,83.7z"/>
	<path class="st9" d="M153.6,81.8c0.5-0.7,0.5-1,0.1-1.3c-0.4-0.3-1-0.5-1.5,0.2c-0.5,0.7-0.6,1.5-0.2,1.8
		C152.4,82.8,153.1,82.5,153.6,81.8z"/>
	<path class="st9" d="M154.5,83.7c0.7-0.4,0.8-0.8,0.6-1.2c-0.2-0.4-0.7-0.9-1.4-0.4c-0.7,0.4-1.1,1.2-0.9,1.6
		C153.1,84.2,153.8,84.2,154.5,83.7z"/>
	<path class="st9" d="M154.7,85.8c0.8-0.1,1.1-0.4,1-0.9c0-0.5-0.3-1.1-1.2-0.9c-0.8,0.1-1.5,0.7-1.4,1.2
		C153.2,85.7,153.9,86,154.7,85.8z"/>
	<path class="st9" d="M66.6,78.1c-4,1.4-6.8,0.7-7.2-1.4C58.9,74.5,63.5,68.8,66.6,78.1z"/>
	<path class="st9" d="M62.7,77.2c-1.1,0.1-1.9,0.7-1.8,1.2c0,0.5,0.9,0.8,2,0.6c1.1-0.1,1.9-0.7,1.8-1.2
		C64.6,77.4,63.7,77.1,62.7,77.2z"/>
	<path class="st9" d="M62.3,77.3c0.2-1,0.1-1.3-0.3-1.5c-0.5-0.2-1.1-0.1-1.3,0.9c-0.2,1,0,1.9,0.4,2C61.6,78.9,62.1,78.3,62.3,77.3
		z"/>
	<path class="st9" d="M59.9,75.6c-0.8-0.2-1.1-0.1-1.2,0.3c-0.2,0.5-0.1,1.1,0.7,1.3c0.8,0.2,1.5,0.1,1.7-0.4
		C61.1,76.4,60.6,75.8,59.9,75.6z"/>
	<path class="st9" d="M61.2,74.1c-0.6-0.5-1-0.5-1.3-0.2c-0.3,0.4-0.5,1,0.1,1.5c0.6,0.5,1.4,0.7,1.7,0.3
		C62.1,75.3,61.9,74.6,61.2,74.1z"/>
	<path class="st9" d="M63,73.2c-0.4-0.7-0.7-0.9-1.1-0.7c-0.4,0.2-0.8,0.7-0.4,1.4c0.4,0.7,1.1,1.2,1.5,1
		C63.4,74.7,63.4,73.9,63,73.2z"/>
	<polygon class="st2" points="141.4,86.1 147,93.6 150.6,86.7 148.8,84.5 	"/>
	<polygon class="st2" points="69.2,84.7 74,76.8 66.3,76 65,78.5 	"/>
	<path class="st11" d="M132.7,91.9c-7,1.6-12.7,1-16.8,0.2c0.3-1.3,0.2-3.7-1.5-6.1l0.7-7.2l-7.5-0.8l-0.1,3.3
		c-5-2-11.2-2.8-15.6-3.5C92.8,78.7,107.5,106.3,132.7,91.9z"/>
	<path class="st12" d="M73.9,44.7c0,0-7,10.3-7.1,10.6c-0.1,0.3,2.3,2,2.3,2l5.8-10.9L73.9,44.7z"/>
	<path class="st12" d="M73.4,44c0,0-12.6,0.9-12.9,1.1c-0.3,0.2,0.4,3,0.4,3l11.5-0.3L73.4,44z"/>
	<path class="st13" d="M71.6,46c0,0-6.6,3.4-6.7,3.7c-0.1,0.3,2,6,2,6l7.5-8.6L71.6,46z"/>
	<path class="st13" d="M70.8,43.3c0,0-6.7-3.2-7-3.1c-0.3,0.1-3.5,5.2-3.5,5.2l11.3,0.8L70.8,43.3z"/>
	<path class="st0" d="M99.1,76.8c-14.3,2.7-29-8.2-27.3-22.8c1.7-14.6-11.5-19.4-0.8-30.1c10.7-10.7,24.5-14.4,41.4-13
		c16.9,1.4,26.5-9.9,38.6,8.4S158.8,65.6,99.1,76.8z"/>
	<path class="st1" d="M154.5,26.3c-3.8,16.8-22.6,29.5-45.3,29.5C90.3,55.8,74.1,47,67,34.4c1.2,5.3,5.9,10.6,4.8,19.6
		c-1.7,14.6,13,25.5,27.3,22.8C151.7,66.9,161.2,44.1,154.5,26.3z"/>
	<path class="st9" d="M117.4,85.3c-16.5-1.7-40-15.8-33.2-37.7c6.8-22,36.6-26.5,52.4-24.8c15.8,1.7,29.3,32.7,14.6,51.2
		C145.2,81.6,134.3,87,117.4,85.3z"/>
	<defs>
		<filter id="Adobe_OpacityMaskFilter" filterUnits="userSpaceOnUse" x="83" y="22.5" width="74.5" height="63.1">
			<feFlood  style="flood-color:white;flood-opacity:1" result="back"/>
			<feBlend  in="SourceGraphic" in2="back" mode="normal"/>
		</filter>
	</defs>
	<mask maskUnits="userSpaceOnUse" x="83" y="22.5" width="74.5" height="63.1" id="SVGID_1_">
		<g class="st14">
			<defs>
				<filter id="Adobe_OpacityMaskFilter_1_" filterUnits="userSpaceOnUse" x="83" y="22.5" width="74.5" height="63.1">
					<feFlood  style="flood-color:white;flood-opacity:1" result="back"/>
					<feBlend  in="SourceGraphic" in2="back" mode="normal"/>
				</filter>
			</defs>
			<mask maskUnits="userSpaceOnUse" x="83" y="22.5" width="74.5" height="63.1" id="SVGID_1_">
				<g class="st15">
				</g>
			</mask>
			<linearGradient id="SVGID_2_" gradientUnits="userSpaceOnUse" x1="119.7369" y1="52.0456" x2="136.9188" y2="87.0959">
				<stop  offset="0" style="stop-color:#000000"/>
				<stop  offset="0.9892" style="stop-color:#B3B3B3"/>
			</linearGradient>
			<path class="st16" d="M117.4,85.3c-16.5-1.7-40-15.8-33.2-37.7c6.8-22,36.6-26.5,52.4-24.8c15.8,1.7,29.3,32.7,14.6,51.2
				C145.2,81.6,134.3,87,117.4,85.3z"/>
		</g>
	</mask>
	<linearGradient id="SVGID_3_" gradientUnits="userSpaceOnUse" x1="119.7369" y1="52.0456" x2="136.9188" y2="87.0959">
		<stop  offset="0" style="stop-color:#BF4E27"/>
		<stop  offset="0.9892" style="stop-color:#B63825"/>
	</linearGradient>
	<path class="st17" d="M117.4,85.3c-16.5-1.7-40-15.8-33.2-37.7c6.8-22,36.6-26.5,52.4-24.8c15.8,1.7,29.3,32.7,14.6,51.2
		C145.2,81.6,134.3,87,117.4,85.3z"/>
	<polygon class="st4" points="159.4,42.8 84.8,43.2 82,51.2 158,60.2 	"/>
	<path class="st13" d="M94.3,51.2c0-2.8,0.5-5.5,1.4-8l-10.8,0.1l-2.8,8l12.3,1.5C94.3,52.2,94.3,51.7,94.3,51.2z"/>
	<path class="st18" d="M152.3,57.1c-1.5-4-5.9-15.5-19.4-3.1L152.3,57.1z"/>
	<path class="st18" d="M125.3,53.6c-3.8-4-15-15.7-22.9-2L125.3,53.6z"/>
	<path class="st9" d="M87.6,53c-5.4-3.6-8.5-7.8-11.1-3.4c-4.5,7.7,8.8,11.6,8.8,11.6L87.6,53z"/>
	<path class="st19" d="M104.6,51.8c1.8-3.2,7-12.4,21,1.9L104.6,51.8z"/>
	<path class="st19" d="M152.3,57.1c-1.5-3.2-5.7-12.6-18.2-2.7L152.3,57.1z"/>
	<path class="st20" d="M150.8,54.5c0.2-1.3-0.7-2.5-2-2.6c-1.3-0.2-2.5,0.7-2.7,2c-0.2,1.3,0.7,2.5,2,2.6
		C149.4,56.7,150.6,55.8,150.8,54.5z"/>
	<path class="st20" d="M121,51c0.2-1.4-0.8-2.8-2.2-3c-1.4-0.2-2.8,0.8-3,2.2c-0.2,1.4,0.8,2.8,2.2,3C119.5,53.5,120.8,52.5,121,51z
		"/>
	<path class="st21" d="M120.4,50.3c0.1-0.6-0.3-1.1-0.9-1.2c-0.6-0.1-1.1,0.3-1.1,0.9c-0.1,0.6,0.3,1.1,0.9,1.2
		C119.8,51.2,120.3,50.9,120.4,50.3z"/>
	<path class="st21" d="M150.4,54c0.1-0.5-0.3-1-0.8-1c-0.5-0.1-1,0.3-1,0.8c-0.1,0.5,0.3,1,0.8,1C149.9,54.8,150.4,54.5,150.4,54z"
		/>
	<path class="st20" d="M122.3,62.5l15.5,1.6C137.8,64.1,126,80.4,122.3,62.5z"/>
	<polygon class="st22" points="132.4,67.8 134.8,64.3 123.2,63 125,67.4 	"/>
	<path class="st10" d="M134.8,58.2c0-0.9-1.4-1.7-3.2-1.7c-1.7,0-3.2,0.8-3.2,1.7c0,0.9,1.4,1.7,3.2,1.7
		C133.4,59.8,134.8,59.1,134.8,58.2z"/>
	<path class="st9" d="M134.9,57.5c0-0.8-1.2-1.4-2.6-1.4c-1.4,0-2.6,0.6-2.6,1.4c0,0.8,1.2,1.4,2.6,1.4
		C133.7,58.9,134.9,58.3,134.9,57.5z"/>
	<path class="st10" d="M85,53.6c-3-2-4.8-4.4-6.2-1.9c-2.5,4.3,4.9,6.5,4.9,6.5L85,53.6z"/>
	<path class="st9" d="M85.1,55.5c-1.6-1-2.5-2.3-3.2-1c-1.3,2.2,2.6,3.4,2.6,3.4L85.1,55.5z"/>
	<path class="st23" d="M117.2,59.1c0-1.3-2.6-2.4-5.8-2.4c-3.2,0-5.8,1.1-5.8,2.4c0,1.3,2.6,2.4,5.8,2.4
		C114.6,61.5,117.2,60.4,117.2,59.1z"/>
	<path class="st23" d="M152.3,63.6c0.1-1.3-2.4-2.6-5.6-2.9c-3.2-0.3-5.9,0.5-6,1.9c-0.1,1.3,2.4,2.6,5.6,2.9
		C149.4,65.7,152.1,64.9,152.3,63.6z"/>
	<path class="st0" d="M104.9,40.9c3.4-1.5,11.7-3.8,13.9-3.3l-0.2,1.4L104.9,40.9z"/>
	<path class="st0" d="M153.2,41.9c-3.1-1.4-10.4-3.3-12.4-2.6l0.2,1.4L153.2,41.9z"/>
</g>
</svg>
